<?xml version="1.0" encoding="UTF-8" standalone="no"?>
<svg
   xmlns:dc="http://purl.org/dc/elements/1.1/"
   xmlns:cc="http://creativecommons.org/ns#"
   xmlns:rdf="http://www.w3.org/1999/02/22-rdf-syntax-ns#"
   xmlns:svg="http://www.w3.org/2000/svg"
   xmlns="http://www.w3.org/2000/svg"
   xmlns:sodipodi="http://sodipodi.sourceforge.net/DTD/sodipodi-0.dtd"
   xmlns:inkscape="http://www.inkscape.org/namespaces/inkscape"
   width="1500px"
   height="1500px"
   version="1.1"
   id="svg7189"
   inkscape:version="0.91 r13725"
   sodipodi:docname="antichess.svg">
  <metadata
     id="metadata7197">
    <rdf:RDF>
      <cc:Work
         rdf:about="">
        <dc:format>image/svg+xml</dc:format>
        <dc:type
           rdf:resource="http://purl.org/dc/dcmitype/StillImage" />
      </cc:Work>
    </rdf:RDF>
  </metadata>
  <defs
     id="defs7195" />
  <sodipodi:namedview
     pagecolor="#ffffff"
     bordercolor="#666666"
     borderopacity="1"
     objecttolerance="10"
     gridtolerance="10"
     guidetolerance="10"
     inkscape:pageopacity="0"
     inkscape:pageshadow="2"
     inkscape:window-width="1280"
     inkscape:window-height="711"
     id="namedview7193"
     showgrid="false"
     inkscape:zoom="0.44500587"
     inkscape:cx="447.60277"
     inkscape:cy="433.6407"
     inkscape:window-x="0"
     inkscape:window-y="1"
     inkscape:window-maximized="1"
     inkscape:current-layer="svg7189" />
  <path
     glyph-name="antichess"
     unicode="@"
     d="M223 464c-63-3-97-16-105-38-1-3-2-7-2-17-1-20-3-35-7-51-6-22-10-31-39-72-15-22-22-42-22-59 0-21 7-40 22-55 12-12 29-21 46-25 10-1 26-1 35 1 16 3 31 10 45 21 3 1 5 3 5 3 0 0 0-4 0-8 0-16 2-28 7-37 2-4 4-7 10-13 4-4 10-9 14-12l6-4 0-9 0-8-14-8-13-9-1-12 0-13 13 0 13 0 4-12 4-13 23 0 5 13 4 12 13 0 12 0 0 13 0 12-14 9-13 8 0 8 0 9 5 4c8 6 21 18 24 23 4 7 8 23 8 37 1 9 1 11 2 9 1-1 14-10 21-13 15-8 28-12 45-12 20 0 36 5 50 15 7 4 19 17 23 24 13 20 16 44 8 66-5 14-12 27-27 48-13 18-14 20-19 29-11 22-16 46-18 80-1 19-2 22-9 29-8 9-20 15-40 19-27 7-79 10-124 8z m-9-56l42-4 42 4c40 3 46 3 52 2 8-2 10-10 3-15-11-8-49-12-105-11-46 1-77 4-89 11-4 2-5 4-5 7 1 5 4 7 11 8 4 1 6 1 49-2z m-20-78c12-1 40-5 53-8l8-1 13 2c27 5 50 7 68 8 14 1 28-1 37-5 6-3 24-21 36-36 10-15 21-35 26-47 2-8 2-8 2-18 0-11-1-19-6-27-9-18-28-27-53-28-4 0-10 1-13 1-19 4-38 15-57 34-10 10-16 18-22 30-8 16-12 36-12 55 0 10-4 13-13 15-8 1-17-1-21-4-2-3-3-5-3-12 0-23-8-49-20-68-14-20-37-39-59-47-14-5-36-5-50 0-12 4-22 12-28 23-3 7-5 11-6 22-1 11-1 16 3 26 7 20 26 48 47 70 10 9 13 12 23 14 10 3 26 3 47 1z m-37-18c-8-1-10-2-20-10-14-10-32-32-41-50-5-10-6-15-7-24 0-12 2-20 10-28 5-5 11-8 21-11 8-2 23-2 31 0 15 5 27 12 40 25 17 19 27 42 29 73 1 10 1 11 0 14-3 5-9 9-20 11-7 1-32 1-43 0z m156 0c-13-2-19-6-22-12-1-3-1-4-1-12 2-21 6-34 13-49 5-10 11-18 21-27 12-12 23-19 36-23 5-1 7-1 16-1 13 0 18 1 27 5 5 3 12 9 14 14 3 5 5 16 5 22 0 19-17 46-46 70-12 10-15 12-24 13-10 1-32 1-39 0z"
     id="path7191"
     style="fill:#a9a9a9;fill-opacity:1"
     transform="scale(1, -1) translate(0, -1500)" />
</svg>
