<?xml version="1.0" standalone="no"?>
<svg width="1500px" height="1500px" version="1.1" xmlns="http://www.w3.org/2000/svg">
<path transform="scale(1, -1) translate(0, -1500)" glyph-name="arrows-in" unicode="&#124;" d="M184 54l24 145c1 3 0 5-2 7 0 0 0 0 0 0-2 2-5 3-7 3l-145-25c-3 0-5-2-6-5-1-3 0-7 2-9l28-28-76-76c-3-3-3-8 0-11l53-53c3-3 8-3 11 0l76 76 28-28c3-2 6-3 9-2 3 1 5 3 5 6z m144 404l-24-145c-1-3 0-5 2-7 0 0 0 0 0 0 2-2 5-3 7-3l145 25c3 0 5 2 6 5 1 3 0 7-2 9l-28 28 76 76c3 3 3 8 0 11l-53 53c-3 3-8 3-11 0l-76-76-28 28c-3 2-6 3-9 2-3-1-5-3-5-6z m130-274l-145 24c-3 1-5 0-7-2 0 0 0 0 0 0-2-2-3-5-3-7l25-145c0-3 2-5 5-6 3-1 7 0 9 2l28 28 76-76c3-3 8-3 11 0l53 53c3 3 3 8 0 11l-76 76 28 28c2 3 3 6 2 9-1 3-3 5-6 5z m-404 144l145-24c3-1 5 0 7 2 0 0 0 0 0 0 2 2 3 5 3 7l-25 145c0 3-2 5-5 6-3 1-6 0-9-2l-28-28-76 76c-3 3-8 3-11 0l-53-53c-3-3-3-8 0-11l76-76-28-28c-2-3-3-6-2-9 1-3 3-5 6-5z"/>
</svg>