<?xml version="1.0" standalone="no"?>
<svg width="1500px" height="1500px" version="1.1" xmlns="http://www.w3.org/2000/svg">
<path transform="scale(1, -1) translate(0, -1500)" glyph-name="arrow-streamline-target" unicode="&#45;" d="M459 437l0 54c0 0-161-50-93-131l-25-25c-34 30-78 49-128 49-106 0-192-86-192-192 0-49 19-94 49-128 0 0 0 0 0 0l-46-46c-4-4-4-11 0-15 3-2 5-3 8-3 3 0 5 1 8 3l45 46c0 0 0 0 0 0 34-30 79-49 128-49 50 0 94 19 128 49 0 0 0 0 1 0l45-46c2-2 5-3 8-3 2 0 5 1 7 3 4 4 4 11 0 15l-45 46c0 0-1 0-1 0 31 34 49 79 49 128 0 49-18 94-49 128l25 25c14-12 27-17 40-17 57 0 91 109 91 109z m-22 0l0-6-21-21 0 39c7 4 14 7 21 11z m-66-32c3 10 12 20 24 30l0-47-14-13c-13 16-10 26-10 30z m13-213c0-94-77-171-171-171-94 0-170 77-170 171 0 94 76 171 170 171 44 0 83-17 113-43l-30-30c-22 19-51 30-83 30-70 0-128-57-128-128 0-71 58-128 128-128 71 0 128 57 128 128 0 32-11 60-30 83l30 30c27-30 43-70 43-113z m-128 0c0-24-19-43-43-43-23 0-42 19-42 43 0 24 19 43 42 43 8 0 16-3 22-6l-16-16c-2 0-4 0-6 0-11 0-21-9-21-21 0-12 10-21 21-21 12 0 22 9 22 21 0 2-1 4-1 5l16 17c4-7 6-14 6-22z m-6 52c-10 8-23 12-37 12-35 0-64-29-64-64 0-35 29-64 64-64 36 0 64 29 64 64 0 14-4 27-12 37l31 30c15-18 24-41 24-67 0-59-48-107-107-107-58 0-106 48-106 107 0 59 48 107 106 107 26 0 49-9 68-24z m171 105c-8 0-16 4-25 11l56 56 29 0c-14-31-37-67-60-67z"/>
</svg>