<?xml version="1.0" encoding="UTF-8" standalone="no"?>
<svg
   xmlns:dc="http://purl.org/dc/elements/1.1/"
   xmlns:cc="http://creativecommons.org/ns#"
   xmlns:rdf="http://www.w3.org/1999/02/22-rdf-syntax-ns#"
   xmlns:svg="http://www.w3.org/2000/svg"
   xmlns="http://www.w3.org/2000/svg"
   xmlns:sodipodi="http://sodipodi.sourceforge.net/DTD/sodipodi-0.dtd"
   xmlns:inkscape="http://www.inkscape.org/namespaces/inkscape"
   width="1500px"
   height="1500px"
   version="1.1"
   id="svg7887"
   inkscape:version="0.91 r13725"
   sodipodi:docname="atom.svg">
  <metadata
     id="metadata7895">
    <rdf:RDF>
      <cc:Work
         rdf:about="">
        <dc:format>image/svg+xml</dc:format>
        <dc:type
           rdf:resource="http://purl.org/dc/dcmitype/StillImage" />
      </cc:Work>
    </rdf:RDF>
  </metadata>
  <defs
     id="defs7893" />
  <sodipodi:namedview
     pagecolor="#ffffff"
     bordercolor="#666666"
     borderopacity="1"
     objecttolerance="10"
     gridtolerance="10"
     guidetolerance="10"
     inkscape:pageopacity="0"
     inkscape:pageshadow="2"
     inkscape:window-width="1280"
     inkscape:window-height="711"
     id="namedview7891"
     showgrid="false"
     inkscape:zoom="0.15733333"
     inkscape:cx="750"
     inkscape:cy="750"
     inkscape:window-x="0"
     inkscape:window-y="1"
     inkscape:window-maximized="1"
     inkscape:current-layer="svg7887" />
  <path
     transform="scale(1, -1) translate(0, -1500)"
     glyph-name="atom"
     unicode="&gt;"
     d="M256 320c-35 0-64-29-64-64 0-35 29-64 64-64 35 0 64 29 64 64 0 35-29 64-64 64z m197-8c-7 2-13 6-19 11-8-16-19-32-30-49-18 23-38 46-61 69-23 22-46 43-69 61 55 39 108 62 145 62 16 0 27-4 35-12 9-8 12-22 12-38 1 0 2 0 3 0 6 0 12-1 18-3 1 24-5 43-18 56-12 12-28 18-50 18-43 0-102-26-163-70-61 44-120 70-163 70-5 0-9 0-13-1 6-5 10-12 13-20 37 0 90-23 145-62-23-18-46-39-69-61-22-23-43-46-61-69-18 26-33 51-44 76-7 16-12 32-15 45-2 0-4 0-6 0-6 0-11 1-16 2 3-17 9-35 18-56 12-27 29-56 50-85-21-29-38-58-50-85-26-58-27-104-2-128 12-12 28-18 50-18 64 0 162 56 250 144 22 23 43 46 61 69 59-83 76-154 50-180-8-8-19-12-35-12-20 0-44 7-71 19-3-7-7-13-12-18 31-14 59-22 83-22 22 0 38 6 50 18 37 37 14 122-52 213 14 19 26 38 36 56z m-360-266c-16 0-27 4-35 12-18 17-15 55 6 104 11 25 26 50 44 76 18-23 39-47 61-69 23-23 46-43 69-61-55-39-108-62-145-62z m235 138c-23-23-48-44-72-63-24 19-48 40-72 63-23 24-44 48-63 72 19 24 40 48 63 72 24 23 48 44 72 63 24-19 48-40 72-63 24-24 45-48 63-72-19-24-40-48-63-72z m141 200c-11 0-21-10-21-21 0-12 10-22 21-22 12 0 22 10 22 22 0 11-10 21-22 21z m-170-277c-12 0-22-10-22-22 0-11 10-21 22-21 11 0 21 10 21 21 0 12-10 22-21 22z m-256 320c11 0 21 9 21 21 0 12-10 21-21 21-12 0-22-9-22-21 0-12 10-21 22-21z"
     id="path7889"
     style="fill:#a9a9a9;fill-opacity:1" />
</svg>
