<?xml version="1.0" standalone="no"?>
<svg width="1500px" height="1500px" version="1.1" xmlns="http://www.w3.org/2000/svg">
<path transform="scale(1, -1) translate(0, -1500)" glyph-name="bar-chart" unicode="&#57348;" d="M137 222l0-103-69 0 0 103z m102 136l0-239-68 0 0 239z m102-68l0-171-68 0 0 171z m103 103l0-274-69 0 0 274z m34-299l0 324c0 2-1 4-3 6-1 2-3 3-6 3l-426 0c-3 0-5-1-6-3-2-2-3-4-3-6l0-324c0-2 1-4 3-6 1-2 3-3 6-3l426 0c3 0 5 1 6 3 2 2 3 4 3 6z m34 324l0-324c0-12-4-22-13-30-8-9-18-13-30-13l-426 0c-12 0-22 4-30 13-9 8-13 18-13 30l0 324c0 12 4 22 13 30 8 9 18 13 30 13l426 0c12 0 22-4 30-13 9-8 13-18 13-30z"/>
</svg>