<?xml version="1.0" standalone="no"?>
<svg width="1500px" height="1500px" version="1.1" xmlns="http://www.w3.org/2000/svg">
<path transform="scale(1, -1) translate(0, -1500)" glyph-name="bell-o" unicode="&#57359;" d="M261 27c0 3-2 5-5 5-11 0-21 4-29 12-8 8-12 18-12 29 0 3-2 5-5 5-3 0-4-2-4-5 0-14 5-26 14-35 10-10 22-15 36-15 3 0 5 1 5 4z m-191 83l372 0c-51 57-76 136-76 237 0 10-3 20-7 30-5 11-11 21-20 30-8 9-20 17-35 23-14 6-30 9-48 9-18 0-34-3-48-9-15-6-27-14-35-23-9-9-15-19-20-30-4-10-7-20-7-30 0-101-25-180-76-237z m424 0c0-10-4-19-11-26-7-7-16-11-26-11l-128 0c0-20-7-37-21-52-15-14-32-21-52-21-20 0-37 7-52 21-14 15-21 32-21 52l-128 0c-10 0-19 4-26 11-7 7-11 16-11 26 10 8 18 16 26 25 8 9 16 20 25 34 8 14 15 29 21 45 6 16 10 36 14 59 4 23 6 48 6 74 0 29 11 56 33 81 22 25 52 40 88 45-2 4-2 8-2 12 0 7 2 14 8 19 5 5 11 8 19 8 8 0 14-3 19-8 6-5 8-12 8-19 0-4 0-8-2-12 36-5 66-20 88-45 22-25 33-52 33-81 0-26 2-51 6-74 4-23 8-43 14-59 6-16 13-31 21-45 9-14 17-25 25-34 8-9 16-17 26-25z"/>
</svg>