<?xml version="1.0" standalone="no"?>
<svg width="1500px" height="1500px" version="1.1" xmlns="http://www.w3.org/2000/svg">
<path transform="scale(1, -1) translate(0, -1500)" glyph-name="body-cut" unicode="&#96;" d="M228 359c5 0 9 1 14 2 2 0 4 1 5 3 1 2 2 4 2 6l-24 135c-1 5-5 8-10 7-42-7-70-47-62-89 6-37 38-64 75-64z m-18 134l20-116-2-1c-29 0-53 21-58 50-6 29 12 58 40 67z m154-132c5-1 9-2 14-2 37 0 69 27 75 64 8 42-20 82-62 89-2 0-4 0-6-2-2-1-3-3-4-5l-23-135c-1-4 2-9 6-9z m32 132c28-9 46-38 41-67-6-29-31-51-61-49z m99-374l-94 0 6 33c5-3 10-6 16-7 19-4 37 9 40 28l14 90c3 15-1 31-10 44-9 13-23 22-38 25l-67 12c-3 0-5 0-7-2-2-1-3-3-3-5l-31-177c-1-4 2-9 6-9 5-1 8-6 7-10l-3-22-57 0-2 22c-1 4 2 9 7 10 2 0 4 1 5 3 2 2 2 4 2 6l-31 177c-1 5-6 8-10 7l-68-12c-32-6-54-37-48-69l15-89c2-9 7-17 14-22 8-6 17-8 26-6 6 1 11 4 15 7l6-34-43 0 0 9c0 5-4 9-8 9-5 0-9-4-9-9l0-9-128 0c-13 0-15-18-15-34 0-15 2-34 15-34l128 0 0-25c0-5 4-9 9-9 4 0 8 4 8 9l0 25 56 0 4-23c3-17 18-28 34-28 2 0 4 0 6 0 18 4 31 21 28 40l-2 11 31 0-2-11c-2-9 0-18 5-26 5-7 13-12 22-14 2 0 4 0 6 0 17 0 31 12 34 28l4 23 73 0c25 0 43 39 43 60 0 5-4 8-9 8z m-284 65l0 1-10 58c-1 5-5 8-10 7-4 0-8-5-7-9l10-58 0 0 0-1c2-9-4-18-13-19-5-1-9 0-13 3-4 2-6 6-7 11l-15 89c-4 23 11 45 34 49l59 11 29-162c-10-5-15-15-13-26l2-19-35 0z m-117-82l17 0 0-34-17 0z m-17-34l-17 0 0 34 17 0z m-57 34l23 0 0-34-23 0c-2 7-2 27 0 34z m108-34l0 34 17 0 0-34z m145-31c1-9-5-18-14-20-9-2-18 5-20 14l-3 20 34 0z m-111 31l0 34 166 0-6-34z m205-37c-2-9-10-16-20-14-4 1-8 3-11 7-2 4-3 8-3 13l18 101c2 11-3 21-12 26l28 162 59-11c11-2 21-8 27-17 7-10 9-21 7-32l-14-91c-2-9-10-15-20-13-4 0-8 3-11 7-2 3-3 8-3 12l0 1 11 59c0 4-3 9-7 10-5 1-9-3-10-7l-11-61 0-1z m94 37l-70 0 7 34 87 0c-3-14-14-34-24-34z"/>
</svg>