<?xml version="1.0" standalone="no"?>
<svg width="1500px" height="1500px" version="1.1" xmlns="http://www.w3.org/2000/svg">
<path transform="scale(1, -1) translate(0, -1500)" glyph-name="buffer" unicode="&#46;" d="M71 348c-9 4-9 11 0 15l169 82c4 2 10 3 16 3 6 0 12-1 16-3l169-82c9-4 9-11 0-15l-169-82c-4-2-10-3-16-3-6 0-12 1-16 3z m370-84c9-4 9-12 0-16l-169-81c-4-2-10-4-16-4-6 0-12 2-16 4l-169 81c-9 4-9 12 0 16 0 0 27 13 33 16 5 3 7 3 13 0 6-3 123-60 123-60 4-2 10-3 16-3 6 0 12 1 16 3 0 0 121 59 125 61 4 2 5 2 9 0 4-2 35-17 35-17z m0-100c9-4 9-11 0-15l-169-82c-4-2-10-3-16-3-6 0-12 1-16 3l-169 82c-9 4-9 11 0 15 0 0 27 14 33 17 5 3 7 2 13-1 6-3 123-59 123-59 4-2 10-3 16-3 6 0 12 1 16 3 0 0 121 58 125 60 4 2 5 2 9 0 4-2 35-17 35-17z"/>
</svg>