<?xml version="1.0" standalone="no"?>
<svg width="1500px" height="1500px" version="1.1" xmlns="http://www.w3.org/2000/svg">
<path transform="scale(1, -1) translate(0, -1500)" glyph-name="chart-line" unicode="&#57;" d="M17 222c-14 4-20 13-16 29 3 14 12 20 27 16 0 0 50-12 50-12 0 0-26-41-26-41 0 0-35 8-35 8m455-6c4 4 10 6 16 6 7-1 12-3 16-8 11-11 11-22-1-33 0 0-128-115-128-115-5-4-10-6-16-6-5 0-9 2-14 5 0 0-146 112-146 112 0 0-28 8-28 8 0 0 26 40 26 40 0 0 18-4 18-4 4-1 7-2 8-4 0 0 135-104 135-104 0 0 114 103 114 103m-251 112c0 0-178-280-178-280-4-8-11-12-20-12-4 0-8 2-12 5-5 3-9 8-10 14-1 7 0 12 3 17 0 0 191 300 191 300 3 6 7 9 14 11 6 2 12 1 19-3 0 0 125-80 125-80 0 0 115 166 115 166 4 6 9 9 15 10 6 1 12-1 17-5 13-8 15-18 6-31 0 0-128-185-128-185-9-12-19-14-32-6 0 0-125 79-125 79"/>
</svg>