<?xml version="1.0" standalone="no"?>
<svg width="1500px" height="1500px" version="1.1" xmlns="http://www.w3.org/2000/svg">
<path transform="scale(1, -1) translate(0, -1500)" glyph-name="code-fork" unicode="&#123;" d="M192 91c0 8-3 15-8 20-5 5-12 8-19 8-8 0-15-3-20-8-5-5-8-12-8-20 0-7 3-14 8-19 5-5 12-8 20-8 7 0 14 3 19 8 5 5 8 12 8 19z m0 330c0 7-3 14-8 19-5 5-12 8-19 8-8 0-15-3-20-8-5-5-8-12-8-19 0-8 3-15 8-20 5-5 12-8 20-8 7 0 14 3 19 8 5 5 8 12 8 20z m183-37c0 8-3 14-8 19-5 6-12 8-20 8-7 0-14-2-19-8-5-5-8-11-8-19 0-8 3-14 8-19 5-6 12-8 19-8 8 0 15 2 20 8 5 5 8 11 8 19z m27 0c0-10-2-19-7-28-5-8-12-15-20-19-1-55-22-95-65-119-13-7-32-15-58-23-24-7-40-14-48-20-8-6-12-16-12-29l0-7c8-5 15-12 20-20 5-8 7-18 7-28 0-15-5-28-16-38-10-11-23-16-38-16-16 0-29 5-39 16-11 10-16 23-16 38 0 10 2 20 7 28 5 8 12 15 20 20l0 234c-8 5-15 12-20 20-5 8-7 18-7 28 0 15 5 28 16 38 10 11 23 16 39 16 15 0 28-5 38-16 11-10 16-23 16-38 0-10-2-20-7-28-5-8-12-15-20-20l0-142c10 5 25 11 44 16 10 4 19 6 25 9 6 2 13 5 20 9 7 3 13 7 17 11 4 4 8 9 12 15 3 5 6 12 8 19 1 8 2 17 2 27-8 4-15 11-20 19-5 9-7 18-7 28 0 15 5 28 16 39 10 11 23 16 38 16 16 0 29-5 39-16 11-11 16-24 16-39z"/>
</svg>