<?xml version="1.0" standalone="no"?>
<svg width="1500px" height="1500px" version="1.1" xmlns="http://www.w3.org/2000/svg">
<path transform="scale(1, -1) translate(0, -1500)" glyph-name="cogs" unicode="&#110;" d="M238 256c0 20-7 37-22 52-14 14-31 21-51 21-21 0-38-7-52-21-14-15-22-32-22-52 0-20 8-37 22-52 14-14 31-21 52-21 20 0 37 7 51 21 15 15 22 32 22 52z m219-146c0 10-3 18-11 25-7 8-16 11-25 11-10 0-19-3-26-11-7-7-11-15-11-25 0-10 4-19 11-26 7-7 15-11 26-11 10 0 18 4 25 11 8 7 11 16 11 26z m0 292c0 10-3 19-11 26-7 7-16 11-25 11-10 0-19-4-26-11-7-7-11-16-11-26 0-10 4-18 11-26 7-7 15-10 26-10 10 0 18 3 25 10 8 8 11 16 11 26z m-110-120l0-53c0-2 0-4-2-5-1-2-2-3-4-3l-44-7c-3-7-6-14-10-22 7-9 15-20 26-33 1-2 2-4 2-6 0-2-1-4-2-5-4-6-12-14-23-26-12-11-19-17-23-17-2 0-4 1-6 2l-33 26c-7-3-14-6-22-9-2-20-4-35-6-44-2-5-4-7-9-7l-53 0c-2 0-4 1-6 2-1 2-2 3-3 5l-6 44c-7 2-14 5-22 9l-33-26c-2-1-4-2-6-2-2 0-4 1-6 3-27 25-41 40-41 45 0 2 1 4 2 6 2 3 6 8 12 15 5 7 10 13 13 17-4 9-8 17-10 24l-43 7c-2 0-4 1-5 2-2 2-2 4-2 6l0 53c0 2 0 4 2 5 1 2 3 3 4 3l45 7c2 7 5 14 9 22-7 9-15 20-26 33-1 2-2 4-2 6 0 2 1 4 2 5 4 6 12 14 23 26 12 11 19 17 23 17 2 0 4-1 6-2l33-26c6 3 14 6 22 9 2 21 4 35 6 44 2 5 5 7 9 7l53 0c2 0 4-1 6-2 2-2 3-3 3-5l6-44c7-2 14-5 22-9l33 26c2 1 4 2 6 2 2 0 4-1 6-3 28-25 41-40 41-45 0-2 0-4-2-6-2-3-6-8-12-15-5-8-10-13-13-17 5-10 8-17 10-24l44-6c1-1 3-2 4-3 2-2 2-4 2-6z m183-152l0-40c0-3-14-6-42-9-3-5-5-10-9-15 10-22 15-35 15-39 0-1-1-2-1-2-24-14-35-21-36-21-1 0-6 5-13 14-7 9-12 15-15 19-4 0-7 0-8 0-2 0-5 0-9 0-3-4-8-10-15-19-7-9-11-14-13-14 0 0-12 7-35 21-1 0-2 1-2 2 0 4 5 17 15 39-3 5-6 10-9 15-28 3-42 6-42 9l0 40c0 3 14 6 42 9 3 5 6 10 9 14-10 22-15 35-15 40 0 1 1 1 2 2 0 0 4 2 10 6 5 3 11 6 16 9 6 3 9 5 9 5 2 0 6-5 13-13 7-9 12-16 15-20 4 1 7 1 9 1 1 0 4 0 8-1 10 14 19 24 26 32l2 1c1 0 13-7 36-20 0-1 1-1 1-2 0-5-5-18-15-40 3-4 6-9 9-14 28-3 42-6 42-9z m0 292l0-40c0-3-14-6-42-9-3-5-5-10-9-14 10-22 15-35 15-40 0-1-1-1-1-2-24-13-35-20-36-20-1 0-6 4-13 13-7 9-12 16-15 20-4-1-7-1-8-1-2 0-5 0-9 1-3-4-8-11-15-20-7-9-11-13-13-13 0 0-12 7-35 20-1 1-2 1-2 2 0 5 5 18 15 40-3 4-6 9-9 14-28 3-42 6-42 9l0 40c0 3 14 6 42 9 3 6 6 11 9 15-10 22-15 35-15 39 0 1 1 2 2 2 0 1 4 3 10 6 5 4 11 7 16 10 6 3 9 4 9 4 2 0 6-4 13-13 7-9 12-15 15-19 4 0 7 0 9 0 1 0 4 0 8 0 10 13 19 24 26 32l2 0c1 0 13-6 36-20 0 0 1-1 1-2 0-4-5-17-15-39 3-4 6-9 9-15 28-3 42-6 42-9z"/>
</svg>