<?xml version="1.0" standalone="no"?>
<svg width="1500px" height="1500px" version="1.1" xmlns="http://www.w3.org/2000/svg">
<path transform="scale(1, -1) translate(0, -1500)" glyph-name="color-palette" unicode="&#125;" d="M288 480c-192 0-288-192-288-320 0-32 64-96 96 0 14 43 96 32 96-32 0-72 32-128 96-128 192 0 224 160 224 256 0 96-32 224-224 224m-160-232c-22 0-40 18-40 40 0 22 18 40 40 40 22 0 40-18 40-40 0-22-18-40-40-40m72 120c0 22 18 40 40 40 22 0 40-18 40-40 0-22-18-40-40-40-22 0-40 18-40 40m104-280c-31 0-56 25-56 56 0 31 25 56 56 56 31 0 56-25 56-56 0-31-25-56-56-56m96 96c-13 0-24 11-24 24 0 13 11 24 24 24 13 0 24-11 24-24 0-13-11-24-24-24m-32 96c-31 0-56 25-56 56 0 31 25 56 56 56 31 0 56-25 56-56 0-31-25-56-56-56"/>
</svg>