<?xml version="1.0" standalone="no"?>
<svg width="1500px" height="1500px" version="1.1" xmlns="http://www.w3.org/2000/svg">
<path transform="scale(1, -1) translate(0, -1500)" glyph-name="crossed-swords-small" unicode="&#85;" d="M281 240l96-104c17 13 29 27 35 41l31 0c-6-27-19-49-40-65l53-63c14-1 21-8 22-23-1-9-6-16-12-20-7-4-16-6-25-6-17 1-25 10-26 28l-54 58c-24-13-46-20-66-22l-14 23c23 3 43 11 58 22l-84 100-83-100c15-11 34-19 57-22l-13-23c-21 2-43 9-67 22l-53-58c-1-16-8-26-22-28-9 0-18 1-27 5-8 3-13 9-14 17 0 17 7 26 22 27l53 63c-21 16-35 38-40 65l31 0c6-14 18-28 35-41l95 104-185 221-11 51 222-243 223 243-11-51z"/>
</svg>