<?xml version="1.0" standalone="no"?>
<svg width="1500px" height="1500px" version="1.1" xmlns="http://www.w3.org/2000/svg">
<path transform="scale(1, -1) translate(0, -1500)" glyph-name="crown-king-1" unicode="&#67;" d="M410 64l-340 0c-3 0-6-3-6-6l0-52c0-3 3-6 6-6l340 0c3 0 6 3 6 6l0 52c0 3-3 6-6 6m70 336c0 27-22 48-48 48-26 0-48-21-48-48 0-16 8-30 20-39l-84-169-56 167c14 8 24 23 24 41 0 27-22 48-48 48-26 0-48-21-48-48 0-18 10-33 24-41l-56-167-84 169c12 9 20 23 20 39 0 27-22 48-48 48-26 0-48-21-48-48 0-22 15-41 35-46l29-258 352 0 29 258c20 5 35 24 35 46"/>
</svg>