<?xml version="1.0" standalone="no"?>
<svg width="1500px" height="1500px" version="1.1" xmlns="http://www.w3.org/2000/svg">
<path transform="scale(1, -1) translate(0, -1500)" glyph-name="crown" unicode="&#56;" d="M430 102c0 9-7 16-15 16l-318 0c-8 0-15-7-15-16l0-19c0-9 7-16 15-16l318 0c8 0 15 7 15 16z m-304 213l0 0 0 0c-3 3-7 4-11 4-9 0-16-7-17-16l0 0 0-150 1 0c0-8 7-15 16-15 0 0 0 0 0 0l0 0 282 0 0 1c0 0 0 0 0 0 8 0 15 6 16 14l1 0 0 2c0 0 0 0 0 0l0 145c0 1 0 2 0 3 0 10-8 17-17 17-4 0-7-1-10-4l0 0-1 0c0-1-1-1-1-2l-36-35-81 81 0 0c-3 3-7 5-12 5-5 0-9-2-12-5l0 0-82-81-34 35c-1 0-1 1-2 1z m248-43l0 0-1 0z m-229 101c0-17-13-31-31-31-17 0-31 14-31 31 0 17 14 31 31 31 18 0 31-14 31-31z m282 0c0-17-14-31-31-31-17 0-31 14-31 31 0 17 14 31 31 31 17 0 31-14 31-31z m-138 41c0-17-14-31-31-31-17 0-31 14-31 31 0 17 14 31 31 31 17 0 31-14 31-31z"/>
</svg>