<?xml version="1.0" standalone="no"?>
<svg width="1500px" height="1500px" version="1.1" xmlns="http://www.w3.org/2000/svg">
<path transform="scale(1, -1) translate(0, -1500)" glyph-name="crown1-1" unicode="&#57369;" d="M1 508c1-2 1-8 2-13 1-22 10-51 21-72 9-18 18-31 35-47 32-32 68-52 161-92 43-18 81-36 100-47 20-11 50-31 41-28-2 1-8 3-16 7-23 7-49 13-112 24-69 12-109 21-144 36-14 6-33 15-43 21-5 3-8 5-8 4 0 0 2-5 4-11 19-50 53-80 110-96 26-7 46-10 108-17 56-5 85-9 108-16l9-3-18 0c-20 0-31-1-70-7-46-5-56-6-82-7-35-2-57 2-82 8-5 2-9 4-9 4-1-2 16-24 25-33 18-18 35-27 57-34 10-2 12-2 34-2 27 0 31 0 83 12 36 7 54 12 68 12 4 1 11 1 15 1l6 1-9-3c-12-5-28-12-50-25-47-27-72-35-103-37l-13-2 10-8c13-10 26-18 37-22 8-3 12-3 22-5 25-1 41 7 89 42 15 11 32 22 39 24 8 3 18 3 26-1 11-6 16-15 16-27 1-5 0-8 0-9-1-2-1-2-3 3-7 13-23 19-35 11-10-5-15-17-11-29 1-4 3-6 7-11 19-18 48-18 65 2 16 15 18 36 7 54-5 7-13 15-20 18-2 1-8 4-12 6-8 6-20 17-15 15 21-7 46 3 56 25 6 13 5 30-3 42-7 13-22 21-37 22-10 0-15-1-21-5-6-5-10-16-6-24 4-10 16-16 27-12 4 2 11 7 12 12 1 4 2 1 2-5-2-12-7-20-17-26-9-4-20-4-29 0-5 3-11 10-14 15-1 4-3 12-3 20-4 21-7 33-15 48-11 23-26 41-49 60-29 23-56 39-129 77-119 62-162 90-208 138-9 9-15 15-15 15-1 0-1-2-1-3z"/>
</svg>