<?xml version="1.0" standalone="no"?>
<svg width="1500px" height="1500px" version="1.1" xmlns="http://www.w3.org/2000/svg">
<path transform="scale(1, -1) translate(0, -1500)" glyph-name="earth-globe-streamline" unicode="&#92;" d="M235 139c100 0 181 81 181 181 0 100-81 181-181 181-100 0-182-81-182-181 0-100 82-181 182-181z m0 341c88 0 160-72 160-160 0-88-72-160-160-160-88 0-160 72-160 160 0 88 72 160 160 160z m166-326c89 89 91 232 7 324l8 8c4 4 4 11 0 15-4 4-11 4-15 0l-31-30c-4-4-4-11 0-15 3-2 5-3 8-3 3 0 6 1 8 3l7 7c75-84 73-213-7-294-81-80-211-83-294-7l7 7c4 4 4 11 0 15-4 4-11 4-15 0l-30-30c-4-4-4-11 0-15 2-2 5-3 7-3 3 0 6 1 8 3l8 8c39-36 87-56 136-61l0-23c-40-4-79-19-112-44l-26-19 319 0-25 19c-34 25-72 40-113 44l0 23c53 5 104 28 145 68z m-256-133c27 14 58 22 90 22 31 0 62-8 90-22z"/>
</svg>