<?xml version="1.0" standalone="no"?>
<svg width="1500px" height="1500px" version="1.1" xmlns="http://www.w3.org/2000/svg">
<path transform="scale(1, -1) translate(0, -1500)" glyph-name="feather" unicode="&#42;" d="M107 6c-2-7-7-8-14-4-6 3-8 9-8 17 2 35 10 73 26 116-34 53-43 107-27 162 4-11 9-24 17-40 7-16 15-29 22-41 8-12 13-17 17-15 2 1 2 15 0 42-3 27-5 55-6 85-1 30 3 57 13 81 7 15 21 31 41 48 19 17 37 29 53 36-8-16-14-32-17-49-3-16-4-29-2-40 2-10 5-15 11-16 4 0 18 21 43 62 24 40 42 61 54 62 16 1 35-4 58-15 24-11 38-22 42-33 4-8 4-22 0-41-4-18-11-33-20-42-15-15-40-26-75-32-35-6-54-10-58-12-6-4-4-9 6-18 18-16 48-19 90-10-19-27-42-47-70-58-27-12-49-18-67-20-18-1-27-3-28-5-1-8 7-17 25-27 18-11 36-13 52-8-10-19-21-33-32-43-12-9-21-15-28-17-7-3-20-5-39-6-19-1-33-3-43-4 0 0-36-115-36-115"/>
</svg>