<?xml version="1.0" standalone="no"?>
<svg width="1500px" height="1500px" version="1.1" xmlns="http://www.w3.org/2000/svg">
<path transform="scale(1, -1) translate(0, -1500)" glyph-name="flag" unicode="&#40;" d="M473 392c5 2 9 2 11 0 3-3 3-6 0-10-32-47-60-84-84-109-23-26-42-41-56-46-14-5-27-6-37-1-11 4-21 11-31 19-10 8-21 15-32 20-12 6-28 5-48-2-20-7-44-21-71-44 0 0 46-180 46-180 0 0-51 0-51 0 0 0-94 369-94 369 0 0 47 17 47 17 30 22 56 37 78 44 21 7 37 7 50 2 12-6 23-15 32-27 10-11 21-23 32-36 12-13 25-23 41-32 15-8 37-12 66-10 28 2 62 10 101 26"/>
</svg>