<?xml version="1.0" standalone="no"?>
<svg width="1500px" height="1500px" version="1.1" xmlns="http://www.w3.org/2000/svg">
<path transform="scale(1, -1) translate(0, -1500)" glyph-name="fontawesome-webfont-7" unicode="&#103;" d="M149 260c-14 31-21 66-21 106l-73 0 0-28c0-15 9-30 27-46 18-16 40-27 67-32z m308 78l0 28-73 0c0-40-7-75-21-106 27 5 49 16 67 32 18 16 27 31 27 46z m37 37l0-37c0-13-4-27-12-41-8-13-19-26-32-37-14-11-30-20-50-28-19-7-40-11-61-12-8-11-17-20-27-27-8-7-13-14-15-21-3-7-4-16-4-26 0-10 2-19 8-26 6-7 15-10 28-10 14 0 27-5 38-13 11-9 17-20 17-33l0-18c0-3-1-5-3-7-1-2-3-2-6-2l-238 0c-3 0-5 0-6 2-2 2-3 4-3 7l0 18c0 13 6 24 17 33 11 8 24 13 38 13 13 0 22 3 28 10 6 7 8 16 8 26 0 10-1 19-4 26-2 7-7 14-15 21-10 7-19 16-27 27-21 1-42 5-61 12-20 8-36 17-50 28-13 11-24 24-32 37-8 14-12 28-12 41l0 37c0 7 3 14 8 19 6 6 12 8 20 8l82 0 0 28c0 12 4 23 13 32 9 9 20 13 33 13l164 0c13 0 24-4 33-13 9-9 13-20 13-32l0-28 82 0c8 0 14-2 20-8 5-5 8-12 8-19z"/>
</svg>