<?xml version="1.0" standalone="no"?>
<svg width="1500px" height="1500px" version="1.1" xmlns="http://www.w3.org/2000/svg">
<path transform="scale(1, -1) translate(0, -1500)" glyph-name="fontawesome-webfont-3" unicode="&#99;" d="M256 402c-39 0-75-6-109-20-34-13-61-31-81-53-19-23-29-47-29-73 0-21 6-42 20-61 14-19 33-36 58-50l24-14-7-28c-5-17-12-34-20-49 29 12 55 28 78 49l13 11 16-2c13-2 25-2 37-2 39 0 75 6 109 20 34 13 61 31 81 53 19 23 29 47 29 73 0 26-10 50-29 73-20 22-47 40-81 53-34 14-70 20-109 20z m256-146c0-33-11-64-34-92-23-28-54-50-93-66-40-17-83-25-129-25-13 0-27 1-41 2-38-33-82-56-132-69-9-2-20-4-32-6l-2 0c-3 0-5 1-8 3-2 2-3 5-4 8l0 0c-1 1-1 2 0 4 0 1 0 2 0 2 0 1 1 2 2 3l1 3c0 0 1 1 2 2 2 2 2 3 3 3 1 1 4 5 8 10 5 5 8 8 10 10 2 3 5 6 9 12 4 5 7 10 9 14 3 5 5 10 8 17 3 7 5 14 8 22-30 17-54 38-71 63-17 25-26 51-26 80 0 33 11 64 34 92 23 28 54 50 93 66 40 17 83 25 129 25 46 0 89-8 129-25 39-16 70-38 93-66 23-28 34-59 34-92z"/>
</svg>