<?xml version="1.0" standalone="no"?>
<svg width="1500px" height="1500px" version="1.1" xmlns="http://www.w3.org/2000/svg">
<path transform="scale(1, -1) translate(0, -1500)" glyph-name="fontawesome-webfont-6" unicode="&#102;" d="M158 256c-29-1-52-12-71-34l-35 0c-15 0-27 3-37 11-10 7-15 17-15 31 0 63 11 94 33 94 1 0 5-1 12-5 6-4 15-8 26-12 10-3 21-5 31-5 12 0 24 2 36 6-1-7-1-13-1-18 0-24 7-47 21-68z m286-170c0-21-7-38-20-50-13-13-30-19-51-19l-234 0c-21 0-38 6-51 19-13 12-20 29-20 50 0 10 1 19 1 28 1 9 2 18 4 29 2 10 4 20 7 29 3 9 7 17 11 26 5 8 11 15 17 21 6 6 14 11 23 15 9 3 19 5 30 5 1 0 5-2 11-6 6-4 12-8 19-13 8-4 17-9 29-12 12-4 24-6 36-6 12 0 24 2 36 6 12 3 21 8 29 12 7 5 13 9 19 13 6 4 10 6 11 6 11 0 21-2 30-5 9-4 17-9 23-15 6-6 12-13 17-21 4-9 8-17 11-26 3-9 5-19 7-29 2-11 3-20 4-29 0-9 1-18 1-28z m-273 341c0-19-7-35-20-49-14-13-30-20-49-20-18 0-35 7-48 20-13 14-20 30-20 49 0 19 7 35 20 48 13 13 30 20 48 20 19 0 35-7 49-20 13-13 20-29 20-48z m187-103c0-28-10-52-30-72-20-20-44-30-72-30-28 0-52 10-72 30-20 20-30 44-30 72 0 29 10 53 30 73 20 20 44 30 72 30 28 0 52-10 72-30 20-20 30-44 30-73z m154-60c0-14-5-24-15-31-10-8-22-11-37-11l-35 0c-19 22-42 33-71 34 14 21 21 44 21 68 0 5 0 11-1 18 12-4 24-6 36-6 10 0 21 2 31 5 11 4 20 8 26 12 7 4 11 5 12 5 22 0 33-31 33-94z m-34 163c0-19-7-35-20-49-13-13-30-20-48-20-19 0-35 7-49 20-13 14-20 30-20 49 0 19 7 35 20 48 14 13 30 20 49 20 18 0 35-7 48-20 13-13 20-29 20-48z"/>
</svg>