<?xml version="1.0" standalone="no"?>
<svg width="1500px" height="1500px" version="1.1" xmlns="http://www.w3.org/2000/svg">
<path transform="scale(1, -1) translate(0, -1500)" glyph-name="fontawesome-webfont-40" unicode="&#33;" d="M293 119l0 54c0 3-1 5-3 7-2 2-4 3-7 3l-54 0c-3 0-5-1-7-3-2-2-3-4-3-7l0-54c0-3 1-5 3-7 2-1 4-2 7-2l54 0c3 0 5 1 7 2 2 2 3 4 3 7z m-1 107l5 131c0 2-1 4-3 6-2 2-4 3-7 3l-62 0c-3 0-5-1-7-3-2-2-3-4-3-6l5-131c0-2 1-3 3-5 1-1 4-2 6-2l53 0c3 0 5 1 7 2 2 2 3 3 3 5z m-4 267l219-402c7-12 7-24 0-36-3-6-8-10-13-14-6-3-12-4-19-4l-438 0c-7 0-13 1-19 4-5 4-10 8-13 14-7 12-7 24 0 36l219 402c3 6 8 10 13 14 6 3 12 5 19 5 7 0 13-2 19-5 5-4 10-8 13-14z"/>
</svg>