<?xml version="1.0" standalone="no"?>
<svg width="1500px" height="1500px" version="1.1" xmlns="http://www.w3.org/2000/svg">
<path transform="scale(1, -1) translate(0, -1500)" glyph-name="fontawesome-webfont-8" unicode="&#104;" d="M110 128c0 5-2 9-6 13-3 3-8 5-13 5-5 0-9-2-12-5-4-4-6-8-6-13 0-5 2-9 6-13 3-3 7-5 12-5 5 0 10 2 13 5 4 4 6 8 6 13z m329 165c0 9-4 18-11 25-8 7-16 11-26 11l-100 0c0 11 4 26 13 46 10 19 14 34 14 46 0 18-3 32-9 41-6 9-18 13-37 13-5-5-8-13-10-24-3-11-6-23-9-36-4-12-9-23-17-31-4-4-12-13-22-26-1-1-3-4-7-9-3-4-6-8-9-11-2-3-5-7-10-12-4-5-8-10-11-13-3-3-7-7-11-10-4-4-8-6-11-8-4-2-8-2-11-2l-9 0 0-183 9 0c3 0 6-1 9-1 4-1 7-1 10-2 3-1 6-2 11-3 4-2 8-3 10-3 2-1 5-2 10-4 4-2 7-3 8-3 40-14 73-21 98-21l34 0c37 0 55 16 55 48 0 5 0 10-1 16 6 3 10 8 13 15 4 7 5 14 5 21 0 7-1 13-5 20 10 9 15 20 15 34 0 4-1 10-2 15-2 6-5 11-8 14 7 0 12 5 16 13 4 9 6 17 6 24z m36 0c0-17-4-33-14-47 2-6 3-13 3-19 0-15-4-29-11-42 1-4 1-8 1-12 0-19-6-36-17-51 0-26-8-47-24-62-17-16-38-23-65-23l-37 0c-18 0-36 2-54 6-18 4-39 11-62 19-22 7-35 11-40 11l-82 0c-10 0-19 4-26 11-7 7-10 16-10 26l0 183c0 10 3 18 10 25 7 8 16 11 26 11l78 0c7 5 20 19 40 44 11 15 21 27 30 37 5 5 8 13 10 24 2 12 5 24 9 37 4 12 10 22 18 30 7 7 16 11 25 11 16 0 31-3 44-9 12-6 22-16 29-29 6-13 10-31 10-53 0-18-5-36-14-55l50 0c20 0 37-8 52-22 14-14 21-32 21-51z"/>
</svg>