<?xml version="1.0" standalone="no"?>
<svg width="1500px" height="1500px" version="1.1" xmlns="http://www.w3.org/2000/svg">
<path transform="scale(1, -1) translate(0, -1500)" glyph-name="fontawesome-webfont-23" unicode="&#122;" d="M512 329c0-5-2-9-5-13l-147-146c-3-4-8-5-13-5-5 0-9 1-12 5-4 4-6 8-6 13l0 73-64 0c-19 0-35-1-50-2-15-1-29-3-44-6-15-3-27-7-38-12-11-5-21-12-30-20-9-8-17-18-23-29-6-11-11-24-14-39-3-16-5-33-5-52 0-10 1-22 2-35 0-1 0-4 0-7 1-3 1-6 1-7 0-3-1-6-2-8-2-1-4-2-7-2-3 0-6 1-8 4-1 2-3 4-4 7-1 2-2 5-4 8-1 4-2 6-3 7-24 54-36 97-36 129 0 38 5 70 15 95 31 77 114 115 250 115l64 0 0 73c0 5 2 10 6 13 3 4 7 6 12 6 5 0 10-2 13-6l147-146c3-4 5-8 5-13z"/>
</svg>