<?xml version="1.0" standalone="no"?>
<svg width="1500px" height="1500px" version="1.1" xmlns="http://www.w3.org/2000/svg">
<path transform="scale(1, -1) translate(0, -1500)" glyph-name="fontawesome-webfont-39" unicode="&#90;" d="M475 457l0-402c0-5-1-9-5-13-4-4-8-5-13-5l-146 0c-5 0-9 1-13 5-4 4-5 8-5 13l0 402c0 5 1 9 5 13 4 4 8 5 13 5l146 0c5 0 9-1 13-5 4-4 5-8 5-13z m-256 0l0-402c0-5-1-9-5-13-4-4-8-5-13-5l-146 0c-5 0-9 1-13 5-4 4-5 8-5 13l0 402c0 5 1 9 5 13 4 4 8 5 13 5l146 0c5 0 9-1 13-5 4-4 5-8 5-13z"/>
</svg>