<?xml version="1.0" standalone="no"?>
<svg width="1500px" height="1500px" version="1.1" xmlns="http://www.w3.org/2000/svg">
<path transform="scale(1, -1) translate(0, -1500)" glyph-name="fontawesome-webfont-4" unicode="&#100;" d="M201 402c-29 0-56-5-82-15-25-9-45-23-60-40-15-17-22-35-22-54 0-16 5-31 15-46 10-14 24-27 42-37l28-16-10-24c6 4 12 7 18 11l12 9 15-3c15-3 30-4 44-4 29 0 57 5 82 15 25 10 45 23 60 40 15 17 23 35 23 55 0 19-8 37-23 54-15 17-35 31-60 40-25 10-53 15-82 15z m0 37c37 0 70-7 101-20 31-13 56-31 73-53 18-22 27-47 27-73 0-27-9-51-27-74-17-22-42-40-73-53-31-13-64-20-101-20-16 0-33 2-50 5-24-17-50-29-80-37-6-1-15-3-24-4l-1 0c-2 0-4 0-6 2-2 2-3 4-3 6 0 1 0 1 0 2 0 1 0 1 0 2 0 0 0 1 0 1l1 2c0 0 0 0 1 1 1 1 1 2 1 2 0 0 1 0 1 1 1 1 2 2 2 2 1 1 3 3 6 7 4 3 6 6 8 8 1 2 3 5 6 8 3 4 5 8 7 11 2 4 4 8 6 13-24 14-42 31-56 51-13 20-20 41-20 64 0 26 9 51 27 73 18 22 42 40 73 53 31 13 65 20 101 20z m235-334c2-5 4-9 6-13 2-4 4-7 7-11 3-3 5-6 6-8 2-2 4-5 8-8 3-4 5-6 6-8 1 0 1 0 2-1 0-1 1-1 1-1 0-1 1-1 1-2 0 0 1-1 1-1l1-2c0 0 0 0 0-1 1-2 1-2 0-2 0 0 0-1 0-2 0-3-2-5-4-6-1-2-4-3-6-2-9 1-18 2-24 4-30 8-56 20-80 37-17-3-34-5-50-5-52 0-97 13-135 38 11-1 19-1 25-1 31 0 60 4 88 13 29 8 54 20 76 36 24 18 42 38 55 61 12 23 19 47 19 73 0 14-2 29-7 43 25-14 44-30 59-51 14-20 21-42 21-66 0-22-7-44-20-64-14-20-32-36-56-50z"/>
</svg>