<?xml version="1.0" standalone="no"?>
<svg width="1500px" height="1500px" version="1.1" xmlns="http://www.w3.org/2000/svg">
<path transform="scale(1, -1) translate(0, -1500)" glyph-name="fontawesome-webfont-12" unicode="&#109;" d="M140 73l26 26-67 67-26-26 0-30 37 0 0-37z m150 265c0 4-2 7-7 7-1 0-3-1-4-2l-155-155c-2-2-2-3-2-5 0-4 2-6 6-6 2 0 4 0 5 2l155 154c1 2 2 3 2 5z m-16 55l119-119-238-237-118 0 0 118z m195-27c0-10-3-19-10-26l-48-47-118 118 47 48c7 7 15 10 26 10 10 0 18-3 26-10l67-67c7-8 10-16 10-26z"/>
</svg>