<?xml version="1.0" standalone="no"?>
<svg width="1500px" height="1500px" version="1.1" xmlns="http://www.w3.org/2000/svg">
<path transform="scale(1, -1) translate(0, -1500)" glyph-name="fontawesome-webfont-42" unicode="&#48;" d="M201 101c0-1 0-3 0-6 1-3 1-6 1-8-1-2-1-4-1-6-1-3-2-5-3-6-2-1-4-2-6-2l-91 0c-23 0-42 8-59 24-16 16-24 36-24 58l0 202c0 22 8 42 24 58 17 16 36 24 59 24l91 0c2 0 5-1 6-3 2-2 3-4 3-6 0-1 0-3 0-6 1-3 1-6 1-8-1-2-1-4-1-6-1-3-2-5-3-6-2-1-4-2-6-2l-91 0c-13 0-24-4-33-13-9-9-13-20-13-32l0-202c0-12 4-23 13-32 9-9 20-13 33-13l89 0c0 0 1 0 3-1 2 0 3 0 3 0 0-1 1-1 3-2 1-1 2-2 2-3-1-1 0-2 0-3z m265 155c0-5-2-9-5-13l-156-155c-3-4-7-6-12-6-5 0-10 2-13 6-4 3-6 8-6 13l0 82-128 0c-5 0-9 2-13 5-3 4-5 8-5 13l0 110c0 5 2 9 5 13 4 3 8 5 13 5l128 0 0 82c0 5 2 10 6 13 3 4 8 6 13 6 5 0 9-2 12-6l156-155c3-4 5-8 5-13z"/>
</svg>