<?xml version="1.0" standalone="no"?>
<svg width="1500px" height="1500px" version="1.1" xmlns="http://www.w3.org/2000/svg">
<path transform="scale(1, -1) translate(0, -1500)" glyph-name="fontawesome-webfont-22" unicode="&#120;" d="M384 128c0 5-2 9-5 13-4 3-8 5-13 5-5 0-10-2-13-5-4-4-6-8-6-13 0-5 2-9 6-13 3-3 8-5 13-5 5 0 9 2 13 5 3 4 5 8 5 13z m73 0c0 5-2 9-5 13-4 3-8 5-13 5-5 0-9-2-13-5-4-4-5-8-5-13 0-5 1-9 5-13 4-3 8-5 13-5 5 0 9 2 13 5 3 4 5 8 5 13z m37 64l0-91c0-8-3-15-8-20-6-5-12-8-20-8l-420 0c-8 0-14 3-20 8-5 5-8 12-8 20l0 91c0 8 3 14 8 19 6 6 12 8 20 8l133 0 38-38c11-11 24-16 39-16 15 0 28 5 39 16l39 38 132 0c8 0 14-2 20-8 5-5 8-11 8-19z m-93 163c3-8 2-15-4-20l-128-128c-4-4-8-6-13-6-5 0-9 2-13 6l-128 128c-6 5-7 12-4 20 3 7 9 11 17 11l73 0 0 128c0 5 2 9 6 13 3 3 7 5 12 5l74 0c5 0 9-2 12-5 4-4 6-8 6-13l0-128 73 0c8 0 14-4 17-11z"/>
</svg>