<?xml version="1.0" standalone="no"?>
<svg width="1500px" height="1500px" version="1.1" xmlns="http://www.w3.org/2000/svg">
<path transform="scale(1, -1) translate(0, -1500)" glyph-name="fontawesome-webfont-26" unicode="&#70;" d="M375 256c0-5-2-9-6-13l-155-155c-4-4-8-6-13-6-5 0-9 2-13 6-3 3-5 8-5 13l0 82-128 0c-5 0-9 2-13 5-4 4-5 8-5 13l0 110c0 5 1 9 5 13 4 3 8 5 13 5l128 0 0 82c0 5 2 10 5 13 4 4 8 6 13 6 5 0 9-2 13-6l155-155c4-4 6-8 6-13z m100 101l0-202c0-22-8-42-24-58-16-16-35-24-58-24l-91 0c-3 0-5 1-7 3-2 2-2 4-2 6 0 1-1 3-1 6 0 3 0 6 0 8 0 2 1 4 1 6 0 3 1 5 3 6 1 1 3 2 6 2l91 0c13 0 23 4 32 13 9 9 14 20 14 32l0 202c0 12-5 23-14 32-9 9-19 13-32 13l-89 0c0 0-1 0-3 1-2 0-4 0-4 0 0 1 0 1-2 2-1 1-2 2-2 3 0 1 0 2 0 3 0 1-1 3-1 6 0 3 0 6 0 8 0 2 1 4 1 6 0 3 1 5 3 6 1 1 3 2 6 2l91 0c23 0 42-8 58-24 16-16 24-36 24-58z"/>
</svg>