<?xml version="1.0" standalone="no"?>
<svg width="1500px" height="1500px" version="1.1" xmlns="http://www.w3.org/2000/svg">
<path transform="scale(1, -1) translate(0, -1500)" glyph-name="fontawesome-webfont-1" unicode="&#97;" d="M393 293c8 0 14-3 20-8 5-6 8-12 8-20l0-164c0-8-3-15-8-20-6-5-12-8-20-8l-274 0c-8 0-14 3-20 8-5 5-8 12-8 20l0 164c0 8 3 14 8 20 6 5 12 8 20 8l9 0 0 91c0 35 13 65 38 90 25 25 55 38 90 38 35 0 65-13 90-38 25-25 38-55 38-90 0-5-2-9-5-13-4-3-8-5-13-5l-19 0c-5 0-9 2-12 5-4 4-6 8-6 13 0 20-7 37-21 52-15 14-32 21-52 21-20 0-37-7-52-21-14-15-21-32-21-52l0-91z"/>
</svg>