<?xml version="1.0" standalone="no"?>
<svg width="1500px" height="1500px" version="1.1" xmlns="http://www.w3.org/2000/svg">
<path transform="scale(1, -1) translate(0, -1500)" glyph-name="fontawesome-webfont-17" unicode="&#114;" d="M457 111c0-23-7-41-21-55-14-13-32-19-55-19l-250 0c-23 0-41 6-55 19-14 14-21 32-21 55 0 10 0 20 1 29 1 10 2 20 4 31 2 11 4 22 7 31 3 10 8 19 13 28 5 9 11 17 17 23 7 7 15 12 25 16 9 3 20 5 32 5 1 0 5-2 12-6 6-4 13-9 21-14 8-5 18-9 31-13 13-4 25-6 38-6 13 0 25 2 38 6 13 4 23 8 31 13 8 5 15 10 21 14 7 4 11 6 12 6 12 0 23-2 32-5 10-4 18-9 25-16 6-6 12-14 17-23 5-9 10-18 13-28 3-9 5-20 7-31 2-11 3-21 4-31 1-9 1-19 1-29z m-91 255c0-31-11-56-32-78-22-21-48-32-78-32-30 0-56 11-78 32-21 22-32 47-32 78 0 30 11 56 32 77 22 22 48 32 78 32 30 0 56-10 78-32 21-21 32-47 32-77z"/>
</svg>