<?xml version="1.0" standalone="no"?>
<svg width="1500px" height="1500px" version="1.1" xmlns="http://www.w3.org/2000/svg">
<path transform="scale(1, -1) translate(0, -1500)" glyph-name="fontawesome-webfont-36" unicode="&#87;" d="M499 472c4 3 7 5 9 3 3-1 4-4 4-9l0-420c0-5-1-8-4-9-2-2-5 0-9 3l-203 203c-1 2-3 4-3 6l0-203c0-5-2-8-4-9-3-2-6 0-9 3l-203 203c-2 2-3 4-4 6l0-194c0-5-2-9-5-13-4-4-8-5-13-5l-37 0c-5 0-9 1-13 5-3 4-5 8-5 13l0 402c0 5 2 9 5 13 4 4 8 5 13 5l37 0c5 0 9-1 13-5 3-4 5-8 5-13l0-194c1 3 2 4 4 6l203 203c3 3 6 5 9 3 2-1 4-4 4-9l0-203c0 3 2 4 3 6z"/>
</svg>