<?xml version="1.0" standalone="no"?>
<svg width="1500px" height="1500px" version="1.1" xmlns="http://www.w3.org/2000/svg">
<path transform="scale(1, -1) translate(0, -1500)" glyph-name="fontawesome-webfont-2" unicode="&#98;" d="M475 213l0 176c-32-17-61-26-87-26-16 0-29 3-41 10-19 9-37 16-53 21-16 6-33 8-51 8-33 0-71-12-115-36l0-171c47 21 88 32 124 32 10 0 20-1 29-2 10-1 19-4 28-7 10-4 17-7 22-9 6-3 13-6 24-12l8-4c8-4 18-6 29-6 23 0 50 9 83 26z m-384 226c0-7-1-13-5-18-3-6-7-10-13-14l0-361c0-3-1-5-2-7-2-2-4-2-7-2l-18 0c-3 0-5 0-7 2-2 2-2 4-2 7l0 361c-6 4-10 8-14 14-3 5-5 11-5 18 0 10 4 19 11 26 7 7 16 10 26 10 10 0 19-3 26-10 7-7 10-16 10-26z m421-18l0-218c0-8-3-13-10-17-2-1-4-2-5-2-41-22-77-33-105-33-17 0-32 3-45 10l-8 4c-13 6-22 10-29 13-6 3-15 6-26 9-10 2-21 4-32 4-20 0-42-5-68-13-25-8-47-18-65-29-3-2-6-3-9-3-3 0-6 1-9 3-7 3-10 9-10 16l0 212c0 6 3 11 9 15 7 4 14 8 23 12 8 5 19 9 32 15 14 6 28 11 44 14 15 4 30 6 44 6 21 0 41-3 60-9 18-6 38-14 60-25 7-3 15-5 25-5 23 0 53 11 89 32 4 2 7 4 8 5 6 3 12 3 18-1 6-4 9-9 9-15z"/>
</svg>