<?xml version="1.0" standalone="no"?>
<svg width="1500px" height="1500px" version="1.1" xmlns="http://www.w3.org/2000/svg">
<path transform="scale(1, -1) translate(0, -1500)" glyph-name="gear" unicode="&#37;" d="M256 337c-45 0-81-36-81-81 0-45 36-81 81-81 45 0 81 36 81 81 0 45-36 81-81 81z m162-128l-14-35 26-51 3-7-36-36-59 28-35-14-18-55-2-7-51 0-22 62-36 14-51-26-7-3-36 36 28 59-14 35-55 18-7 2 0 51 62 22 14 36-26 51-3 7 36 36 59-28 35 14 18 55 2 7 51 0 22-62 36-14 51 26 7 3 36-36-28-59 14-35 55-18 7-2 0-51z"/>
</svg>