<?xml version="1.0" standalone="no"?>
<svg width="1500px" height="1500px" version="1.1" xmlns="http://www.w3.org/2000/svg">
<path transform="scale(1, -1) translate(0, -1500)" glyph-name="graduate-cap" unicode="&#58;" d="M256 422l-234-87 234-117 111 56-104 32c-2-1-5-2-7-2-9 0-16 7-16 16 0 9 7 16 16 16l-3-9 19-5c15 0 28-13 28-28 0-16-13-28-28-28l27-9 156 8 0-12c-4-3-7-8-7-13 0-5 3-10 7-13-7-28-7-90-7-115 16-10 16-11 32 0 0 25 0 87-7 115 4 3 7 8 7 13 0 5-3 10-7 13l0 26-59 18 76 38z m-136-159l-13-79c26-3 57-18 86-36 16-11 31-22 44-33 8-6 14-13 19-19 5 6 11 13 19 19 13 11 28 22 44 33 29 18 60 33 87 36l-14 79-6 0-130-65-130 65z"/>
</svg>