<?xml version="1.0" standalone="no"?>
<svg width="1500px" height="1500px" version="1.1" xmlns="http://www.w3.org/2000/svg">
<path transform="scale(1, -1) translate(0, -1500)" glyph-name="h-square" unicode="&#57355;" d="M402 128l0 256c0 5-2 9-5 13-4 3-8 5-13 5l-37 0c-5 0-9-2-12-5-4-4-6-8-6-13l0-91-146 0 0 91c0 5-2 9-6 13-3 3-7 5-12 5l-37 0c-5 0-9-2-13-5-3-4-5-8-5-13l0-256c0-5 2-9 5-13 4-3 8-5 13-5l37 0c5 0 9 2 12 5 4 4 6 8 6 13l0 91 146 0 0-91c0-5 2-9 6-13 3-3 7-5 12-5l37 0c5 0 9 2 13 5 3 4 5 8 5 13z m73 265l0-274c0-23-8-42-24-58-16-16-35-24-58-24l-274 0c-23 0-42 8-58 24-16 16-24 35-24 58l0 274c0 23 8 42 24 58 16 16 35 24 58 24l274 0c23 0 42-8 58-24 16-16 24-35 24-58z"/>
</svg>