<?xml version="1.0" standalone="no"?>
<svg width="1500px" height="1500px" version="1.1" xmlns="http://www.w3.org/2000/svg">
<path transform="scale(1, -1) translate(0, -1500)" glyph-name="hand-stop" unicode="&#50;" d="M32 384l0-256c0-60 0-128 96-128l128 0c72 0 90 39 94 83l123 153c10 13 9 31-2 43-4 3-26 23-56 23-14 0-34-4-54-23l-41-42 0 211c0 18-14 32-32 32l-32 0c0 18-14 32-32 32l-32 0c-18 0-32-14-32-32l-32 0c-18 0-32-14-32-32l0-32-32 0c-18 0-32-14-32-32m32 0l32 0 0-128 32 0 0 192 32 0 0-192 32 0 0 224 32 0 0-224 32 0 0 192 32 0 0-256 32 0 0 0 64 64c11 11 21 14 31 14 19 0 33-14 33-14l-128-159 0-1-1 0c-1-42-11-64-63-64l-128 0c-64 0-64 32-64 96z"/>
</svg>