<?xml version="1.0" standalone="no"?>
<svg width="1500px" height="1500px" version="1.1" xmlns="http://www.w3.org/2000/svg">
<path transform="scale(1, -1) translate(0, -1500)" glyph-name="hookah" unicode="&#126;" d="M475 288l-42 42c-2 2-6 3-9 2-3 0-5-3-6-6l-8-34c-1-3 0-6 2-8l3-2-10-10-6 7c-4 3-9 3-12 0-4-3-4-9 0-12l6-7-31-31c0 1-1 1-2 1-21 20-53 30-80 39-2 0-5 1-7 2l0 190 9 0c4 0 8 4 8 8l0 34c0 5-4 9-8 9l-120 0c-5 0-8-4-8-9l0-34c0-4 3-8 8-8l9 0 0-190c-3-1-5-2-7-2-28-9-59-19-80-39-4 0-7-4-7-8-11-13-17-29-17-51 0-66 57-84 104-98 2-1 4-2 7-2l0-15-56-41c-3-2-5-6-4-9 2-4 5-6 9-6l204 0c5 0 9 4 9 9 0 3-2 6-5 7l-55 40 0 15c2 0 5 1 7 2 46 14 104 32 104 98 0 18-4 32-12 44l33 33 7-7c2-1 4-2 6-2 2 0 5 1 6 2 4 4 4 9 0 12l-7 7 10 10 2-3c2-2 4-2 6-2l2 0 34 8c3 1 6 3 7 6 0 3 0 6-3 9z m-304 207l102 0 0-17-102 0z m-2-243c4 2 9 3 13 4 3 2 6 5 6 9l0 196 68 0 0-196c0-4 2-7 6-9 4-1 9-2 13-4 20-6 40-12 56-22l-218 0c16 10 35 16 56 22z m-23-235l36 26 80 0 36-26z m221 154c0-53-45-67-92-82-4-1-9-3-13-4-4-1-6-4-6-8l0-17-68 0 0 17c0 4-3 7-6 8-4 1-9 3-13 4-47 15-92 29-92 82 0 18 5 32 14 42l255 0-105-105c-3-3-3-8 0-12 2-1 4-2 7-2 2 0 4 1 6 2l106 107c4-9 7-20 7-32z m71 112l-10 10 3 15 22-22z"/>
</svg>