<?xml version="1.0" standalone="no"?>
<svg width="1500px" height="1500px" version="1.1" xmlns="http://www.w3.org/2000/svg">
<path transform="scale(1, -1) translate(0, -1500)" glyph-name="hourglass" unicode="&#43;" d="M350 256c59 42 98 120 98 192 0 35-86 64-192 64-106 0-192-29-192-64 0-72 40-150 99-192-59-43-99-120-99-192 0-36 86-64 192-64 106 0 192 28 192 64 0 72-40 149-98 192z m-94 224c71 0 128-15 128-32 0-18-57-32-128-32-70 0-128 14-128 32 0 17 58 32 128 32z m-32-353c-77-4-119-20-126-41 8 57 37 94 70 125 37 34 56 30 56 52l0-137z m-52 176c-35 27-61 65-71 107 35-16 91-26 155-26 64 0 121 10 156 26-10-42-36-80-71-107-12 8-35 17-85 17-49 0-72-9-84-17z m116-176l0 136c0-21 20-17 56-51 33-31 63-69 71-126-7 21-50 38-127 41z"/>
</svg>