<?xml version="1.0" standalone="no"?>
<svg width="1500px" height="1500px" version="1.1" xmlns="http://www.w3.org/2000/svg">
<path transform="scale(1, -1) translate(0, -1500)" glyph-name="info-circled" unicode="&#57349;" d="M253 492c65 0 120-22 167-67 46-45 70-100 72-165 0-65-22-121-68-167-45-47-100-71-165-73-65 0-121 22-167 68-47 45-71 100-72 165-1 65 21 121 67 167 46 47 101 71 166 72m27-78c-15 0-26-4-34-13-8-8-12-16-12-25 0-10 2-17 8-23 6-5 14-8 25-8 13 0 24 4 31 11 8 8 12 17 12 28 0 20-10 30-30 30m-62-304c10 0 25 4 43 13 19 9 37 22 54 40 0 0-9 12-9 12-16-12-28-18-37-18-4 0-5 6-2 19 0 0 22 82 22 82 9 33 5 49-11 49-11 0-26-5-46-15-20-10-40-22-59-38 0 0 8-13 8-13 18 11 31 17 38 17 4 0 4-6 0-17 0 0-18-78-18-78-9-36-3-53 17-53"/>
</svg>