<?xml version="1.0" standalone="no"?>
<svg width="1500px" height="1500px" version="1.1" xmlns="http://www.w3.org/2000/svg">
<path transform="scale(1, -1) translate(0, -1500)" glyph-name="ink-pen" unicode="&#54;" d="M121 264l-85-68 35-7 75 63c145 2 233 58 233 58l-51 44c0 0 90 7 113-4 21 11 59 47 71 156-263 38-329-107-391-242m38 15l-2 1c25 26 169 173 320 205-83-29-278-176-318-206m31-148l-32 0c0 18-15 32-32 32l-32 0c-18 0-32-14-32-32l-32 0c-18 0-32-14-32-32l0-64c0-17 14-32 32-32l160 0c17 0 32 15 32 32l0 64c0 18-15 32-32 32"/>
</svg>