<?xml version="1.0" standalone="no"?>
<svg width="1500px" height="1500px" version="1.1" xmlns="http://www.w3.org/2000/svg">
<path transform="scale(1, -1) translate(0, -1500)" glyph-name="ionicons-1" unicode="&#55;" d="M160 256c0 64 32 96 96 96 64 0 96-32 96-96 0-64-32-96-96-96-64 0-96 32-96 96z m352 16l0-32-65 0c-4-47-22-87-55-120-33-33-73-51-120-55l0-65-32 0 0 65c-47 4-87 22-120 55-33 33-51 73-55 120l-65 0 0 32 65 0c1 13 3 26 7 39 4 13 9 24 15 35 6 11 13 22 21 32 8 10 16 18 26 26 10 8 21 15 32 21 11 6 22 11 35 15 13 4 26 6 39 7l0 65 32 0 0-65c47-4 87-22 120-55 33-33 51-73 55-120z m-256-159c39 0 73 14 101 42 28 28 42 62 42 101 0 39-14 73-42 101-28 28-62 42-101 42-39 0-73-14-101-42-28-28-42-62-42-101 0-39 14-73 42-101 28-28 62-42 101-42z"/>
</svg>