<?xml version="1.0" standalone="no"?>
<svg width="1500px" height="1500px" version="1.1" xmlns="http://www.w3.org/2000/svg">
<path transform="scale(1, -1) translate(0, -1500)" glyph-name="keypad" unicode="&#95;" d="M160 426c0-6-4-10-10-10l-76 0c-6 0-10 4-10 10l0 76c0 6 4 10 10 10l76 0c6 0 10-4 10-10z m147 0c0-6-4-10-10-10l-76 0c-6 0-10 4-10 10l0 76c0 6 4 10 10 10l76 0c6 0 10-4 10-10z m141 0c0-6-4-10-10-10l-76 0c-6 0-10 4-10 10l0 76c0 6 4 10 10 10l76 0c6 0 10-4 10-10z m-288-128c0-6-4-10-10-10l-76 0c-6 0-10 4-10 10l0 76c0 6 4 10 10 10l76 0c6 0 10-4 10-10z m147 0c0-6-4-10-10-10l-76 0c-6 0-10 4-10 10l0 76c0 6 4 10 10 10l76 0c6 0 10-4 10-10z m141 0c0-6-4-10-10-10l-76 0c-6 0-10 4-10 10l0 76c0 6 4 10 10 10l76 0c6 0 10-4 10-10z m-288-128c0-6-4-10-10-10l-76 0c-6 0-10 4-10 10l0 76c0 6 4 10 10 10l76 0c6 0 10-4 10-10z m147 0c0-6-4-10-10-10l-76 0c-6 0-10 4-10 10l0 76c0 6 4 10 10 10l76 0c6 0 10-4 10-10z m0-128c0-6-4-10-10-10l-76 0c-6 0-10 4-10 10l0 76c0 6 4 10 10 10l76 0c6 0 10-4 10-10z m141 128c0-6-4-10-10-10l-76 0c-6 0-10 4-10 10l0 76c0 6 4 10 10 10l76 0c6 0 10-4 10-10z"/>
</svg>