<?xml version="1.0" standalone="no"?>
<svg width="1500px" height="1500px" version="1.1" xmlns="http://www.w3.org/2000/svg">
<path transform="scale(1, -1) translate(0, -1500)" glyph-name="list" unicode="&#63;" d="M73 137l0-55c0-2-1-4-3-6-1-2-4-3-6-3l-55 0c-2 0-4 1-6 3-2 2-3 4-3 6l0 55c0 3 1 5 3 7 2 1 4 2 6 2l55 0c2 0 5-1 6-2 2-2 3-4 3-7z m0 110l0-55c0-2-1-5-3-6-1-2-4-3-6-3l-55 0c-2 0-4 1-6 3-2 1-3 4-3 6l0 55c0 2 1 4 3 6 2 2 4 3 6 3l55 0c2 0 5-1 6-3 2-2 3-4 3-6z m0 110l0-55c0-3-1-5-3-7-1-2-4-2-6-2l-55 0c-2 0-4 0-6 2-2 2-3 4-3 7l0 55c0 2 1 4 3 6 2 2 4 3 6 3l55 0c2 0 5-1 6-3 2-2 3-4 3-6z m439-220l0-55c0-2-1-4-3-6-2-2-4-3-6-3l-384 0c-3 0-5 1-7 3-1 2-2 4-2 6l0 55c0 3 1 5 2 7 2 1 4 2 7 2l384 0c2 0 4-1 6-2 2-2 3-4 3-7z m-439 329l0-55c0-2-1-4-3-6-1-2-4-3-6-3l-55 0c-2 0-4 1-6 3-2 2-3 4-3 6l0 55c0 3 1 5 3 7 2 2 4 2 6 2l55 0c2 0 5 0 6-2 2-2 3-4 3-7z m439-219l0-55c0-2-1-5-3-6-2-2-4-3-6-3l-384 0c-3 0-5 1-7 3-1 1-2 4-2 6l0 55c0 2 1 4 2 6 2 2 4 3 7 3l384 0c2 0 4-1 6-3 2-2 3-4 3-6z m0 110l0-55c0-3-1-5-3-7-2-2-4-2-6-2l-384 0c-3 0-5 0-7 2-1 2-2 4-2 7l0 55c0 2 1 4 2 6 2 2 4 3 7 3l384 0c2 0 4-1 6-3 2-2 3-4 3-6z m0 109l0-55c0-2-1-4-3-6-2-2-4-3-6-3l-384 0c-3 0-5 1-7 3-1 2-2 4-2 6l0 55c0 3 1 5 2 7 2 2 4 2 7 2l384 0c2 0 4 0 6-2 2-2 3-4 3-7z"/>
</svg>