<?xml version="1.0" standalone="no"?>
<svg width="1500px" height="1500px" version="1.1" xmlns="http://www.w3.org/2000/svg">
<path transform="scale(1, -1) translate(0, -1500)" glyph-name="loop-alt2" unicode="&#66;" d="M319 160l96 128 97-128-64 0 0-32c0-53-43-96-96-96l-192 0c-53 0-96 43-96 96l0 32 64 0 0-32c0-18 14-32 32-32l192 0c18 0 32 14 32 32l0 32z m-126 192l-96-128-97 128 64 0 0 32c0 53 43 96 96 96l192 0c53 0 96-43 96-96l0-32-64 0 0 32c0 18-14 32-32 32l-192 0c-18 0-32-14-32-32l0-32z"/>
</svg>