<?xml version="1.0" standalone="no"?>
<svg width="1500px" height="1500px" version="1.1" xmlns="http://www.w3.org/2000/svg">
<path transform="scale(1, -1) translate(0, -1500)" glyph-name="mic" unicode="&#57347;" d="M244 476c-11-1-22-3-33-7l0-58-24 0 0 49c-11-5-21-12-30-19 0 0 0-1 0-1l0-240c0 0 0 0 0 0 28-24 63-36 99-36 36 0 72 13 99 36 0 0 0 0 0 0l0 240c0 0 0 1 0 1-9 7-19 13-30 19l0-49-24 0 0 58c-11 4-22 6-33 7l0-65-24 0z m-134-193l0-123c8-8 18-15 28-22 23-15 50-26 78-31l0 14 80 0 0-14c29 5 55 16 78 31 10 7 20 14 28 22l0 123-28 0 0-109c-32-26-73-42-118-42-45 0-86 16-118 42l0 109z m186-176c-13-3-26-4-40-4-14 0-27 1-40 4l0-41-48 0 0-30 176 0 0 30-48 0z"/>
</svg>