<?xml version="1.0" standalone="no"?>
<svg width="1500px" height="1500px" version="1.1" xmlns="http://www.w3.org/2000/svg">
<path transform="scale(1, -1) translate(0, -1500)" glyph-name="microscope" unicode="&#65;" d="M416 32l-22 0c52 34 86 93 86 160 0 90-62 165-145 186l36 68c4 9 1 19-7 23l-86 41c-4 2-8 2-13 1-4-2-7-5-9-9l-102-194c-8-17-2-37 14-44l-14-29 57-28 14 29c16-8 36 0 44 17l35 65c63-7 112-61 112-126 0-71-57-128-128-128-32 0-74 12-96 32l0 16c0 9 7 16 16 16l80 0 0 32-256 0 0-32 80 0c9 0 16-7 16-16l0-80c-35 0-64 3-64-32l416 0c0 35-29 32-64 32m-112 437c-4-2-8-5-10-10l-74-139-28 14c1 2 1 4 2 6l70 130c2 4 5 7 9 9 5 1 9 1 13-1l18-9c0 0 0 0 0 0"/>
</svg>