<?xml version="1.0" standalone="no"?>
<svg width="1500px" height="1500px" version="1.1" xmlns="http://www.w3.org/2000/svg">
<path transform="scale(1, -1) translate(0, -1500)" glyph-name="moon" unicode="&#52;" d="M232 382c-14-4-19-5-30-11-28-14-50-39-59-68-8-24-7-57 1-78 1-2-2-4-8-5-10-2-22-11-33-24l-5-6-9 0c-11 0-24-2-35-7-13-5-24-17-31-32-7-13-7-20-2-25l3-4 293 0 4 3c3 3 4 7 4 14l1 4 67 0c71 0 73 0 77 7 4 7 1 14-12 27-13 12-27 18-44 19-7 0-8 1-13 5-9 8-15 11-26 14-5 1-10 3-10 3-1 0 0 1 2 9 5 15 6 22 6 37 0 27-5 46-19 67-17 25-42 43-72 50-2 0-5 1-6 1-2 1-10 1-19 1-11 1-18 0-25-1z m43-13c37-7 67-32 80-68 4-13 5-19 5-38 0-16-1-24-7-38-4-8-4-8-10-10-9-2-16-6-24-12-6-5-7-6-11-5-12 2-27 0-40-7-8-3-8-3-22 4-11 5-25 8-35 8-6-1-7-1-13 5-8 8-19 13-31 15l-9 2-4 11c-9 29-3 62 14 88 14 22 40 40 64 45 4 0 8 1 9 1 5 2 26 1 34-1z m-101-161c7-3 16-9 21-15l5-6 6 2c11 3 20 1 36-6 6-3 11-6 12-9 1-1 3-3 3-4 0 0 3 2 6 4 10 7 25 4 38-9 8-8 10-12 11-23l0-8-282 0 1 5c4 11 12 21 21 28 13 9 34 13 48 8 5-1 5-1 9 7 9 14 24 25 38 28 8 1 20 1 27-2z m206-8c5-3 11-7 15-11l6-6 12-1c10 0 14 0 19-3 8-3 17-10 25-19l3-4-68 0-69 0-5 8c-5 7-18 20-21 20-2 0-2 1 0 1 1 1 11 0 18-2 3-1 4-1 6 2 3 6 11 12 17 15 4 2 6 3 6 3 0-1 1 0 2 0 2 1 8 1 14 1 9 0 12 0 20-4z"/>
</svg>