<?xml version="1.0" standalone="no"?>
<svg width="1500px" height="1500px" version="1.1" xmlns="http://www.w3.org/2000/svg">
<path transform="scale(1, -1) translate(0, -1500)" glyph-name="nuclear" unicode="&#44;" d="M350 263c-3 3-9 3-12-1-3-3-2-9 1-12 16-13 28-29 36-47-1 1-2 0-3 0-5-2-26-10-26-26-1-5-15-14-22-19l-2-2c-12-7-15-21-11-29 2-6 9-9 15-7 10 4 24 5 30 0 6-5 14-7 20-7 2 0 4 0 5 1-5-19-14-36-27-50l-1 1c0 0-6 4-5 9 4 22-1 27-5 30-2 2-8 3-16-3-5-4-13-2-25 1-2 1-5 1-7 2-14 3-34-1-42-9-3-3-5-8-3-12 1-3 5-21-7-28-5-3-8-7-9-13-1-7 2-15 6-21-30 4-56 18-76 38 5 16 13 32 18 35 13-2 25 7 29 17 3 8 1 15-5 20-8 5-15 16-15 20 0 12-5 20-17 25-8 4-30 7-42 9 7 25 21 48 42 65 3 3 4 8 1 12-3 4-9 4-12 1-34-28-53-69-53-113 0-81 66-147 147-147 81 0 147 66 147 147 0 44-20 85-54 113z m-222-95c15-2 34-5 38-7 7-3 8-6 8-10 0-11 11-26 21-34 0-1-1-3-3-4-3-2-6-3-8-3-15 3-26-18-33-36-15 21-24 48-24 76 0 6 0 12 1 18z m124-127c16 9 18 28 15 43 4 3 15 5 24 3 2 0 5-1 7-1 11-3 24-7 34-2 0-1 0-4-1-6-2-12 5-21 11-26-22-19-50-31-80-32-5 6-12 15-11 19 0 1 0 1 1 2z m133 91c-5-2-13-3-17 1-12 10-28 8-40 5 1 2 2 3 3 4l2 1c14 9 29 20 30 34 0 2 7 7 15 10 1 0 2 1 3 2 3-13 6-26 6-39 0-6-1-12-2-18z m27 300c-8 5-16 6-25 4-2 9-8 18-17 24-11 7-24 11-38 12-16 25-44 40-75 40-31 0-59-15-75-40-10-1-21-3-30-8-11-5-18-12-22-21-9 3-19 2-28-3-12-7-19-20-19-34 0-15 7-28 20-34 9-5 20-6 29-3 6-9 15-15 28-20 9-3 19-4 29-4 5 0 10 0 15 1 3-3 6-5 8-7 5-4 7-6 8-12-4-1-8-2-12-4-10-6-17-16-17-28 0-12 7-22 17-28 2-2 5-3 8-3 0-2-1-3-1-4-2-25-3-45-16-58-4-3-4-8 0-12 1-1 4-2 6-2 2 0 4 1 6 2 17 17 19 41 21 68 0 2 1 4 1 6 2 1 5 2 7 3 4 3 5 8 3 12-3 4-8 6-12 3-5-3-10-3-15 0-5 2-8 7-8 13 0 5 3 10 8 13 5 2 11 2 16-1 4-2 9-1 11 3 3 3 2 9-2 11-1 1-2 2-3 2-1 9-3 15-6 20 7-3 14-5 22-5l2 0c9 0 18 2 26 5-3-4-5-10-5-20-1 0-3-1-4-2-4-2-5-8-2-11 3-4 8-5 12-3 4 3 10 4 15 1 5-3 8-8 8-13 0-6-3-11-8-13-4-3-10-3-15 0-4 3-9 1-11-3-3-4-1-9 3-12 1 0 3-1 4-2 0-2 1-4 1-7 2-27 4-51 21-68 2-1 4-2 6-2 2 0 5 1 6 2 4 4 4 9 0 12-13 13-14 33-16 58 0 1 0 2-1 3 4 1 7 2 11 4 10 6 16 16 16 28 0 12-6 22-17 28-4 2-8 3-12 4 1 7 3 9 8 13 2 2 4 4 7 6l0 0c5-1 11-1 17-1 7 0 14 1 21 2 13 3 24 9 31 17 10-5 21-6 32-1 13 6 22 20 22 35 0 15-8 28-20 34z m-10-53c-7-4-14-2-20 3-2 2-5 2-7 2-3-1-5-2-6-4-6-10-17-14-26-16-17-4-37-1-45 4l-1 0-1 1-2 0-2 0-1 0-2-1-1-1-1 0c-8-8-20-13-32-12-11 0-21 4-28 12l0 0-2 1-1 1-2 0-1 0-2 0-2-1-1 0c-9-6-32-9-51-2-8 2-17 7-21 18-1 2-3 4-5 5-3 1-6 0-8-1-6-4-14-5-20-1-7 3-11 11-11 19 0 8 4 15 11 19 6 3 13 3 19-1l0 0c5-2 8-7 9-12 1-4 5-6 9-6l2 0c4 1 7 6 6 10-2 8-6 14-11 19 2 5 7 10 15 14 15 8 35 8 50 0 4-2 9 0 12 4 2 4 0 9-4 12-5 2-10 4-16 5 13 16 33 25 55 25 22 0 42-9 55-25-5-1-10-3-15-6-5-2-6-7-4-11 2-4 7-6 11-4 8 4 15 6 23 6l0 0 1 0c12 0 24-3 32-9 5-4 11-9 11-17-4-4-7-8-10-13-2-4 0-9 4-11 1-1 3-1 4-1 3 0 6 1 8 4 1 4 4 7 7 9 6 4 14 4 20 0 7-3 11-10 11-19 0-10-7-17-13-19z m-146-200c5 0 9 4 9 9l0 59c0 5-4 9-9 9-5 0-8-4-8-9l0-59c0-5 3-9 8-9z"/>
</svg>