<?xml version="1.0" standalone="no"?>
<svg width="1500px" height="1500px" version="1.1" xmlns="http://www.w3.org/2000/svg">
<path transform="scale(1, -1) translate(0, -1500)" glyph-name="phone-mobile" unicode="&#57351;" d="M279 110c0 6-2 11-7 16-4 4-10 7-16 7-6 0-12-3-16-7-5-5-7-10-7-16 0-7 2-12 7-16 4-5 10-7 16-7 6 0 12 2 16 7 5 4 7 9 7 16z m59 45l0 202c0 2-1 4-2 6-2 2-4 3-7 3l-146 0c-3 0-5-1-7-3-1-2-2-4-2-6l0-202c0-2 1-4 2-6 2-2 4-3 7-3l146 0c3 0 5 1 7 3 1 2 2 4 2 6z m-55 243c0 3-1 4-4 4l-46 0c-3 0-4-1-4-4 0-3 1-5 4-5l46 0c3 0 4 2 4 5z m83 4l0-292c0-10-4-19-11-26-7-7-16-11-26-11l-146 0c-10 0-19 4-26 11-7 7-11 16-11 26l0 292c0 10 4 19 11 26 7 7 16 11 26 11l146 0c10 0 19-4 26-11 7-7 11-16 11-26z"/>
</svg>