<?xml version="1.0" standalone="no"?>
<svg width="1500px" height="1500px" version="1.1" xmlns="http://www.w3.org/2000/svg">
<path transform="scale(1, -1) translate(0, -1500)" glyph-name="plus-circled" unicode="&#79;" d="M256 471c59 0 110-21 152-63 42-42 63-93 63-152 0-59-21-110-63-152-42-42-93-63-152-63-59 0-110 21-152 63-42 42-63 93-63 152 0 59 21 110 63 152 42 42 93 63 152 63m27-241c0 0 102 0 102 0 0 0 0 53 0 53 0 0-102 0-102 0 0 0 0 103 0 103 0 0-53 0-53 0 0 0 0-103 0-103 0 0-103 0-103 0 0 0 0-53 0-53 0 0 103 0 103 0 0 0 0-103 0-103 0 0 53 0 53 0 0 0 0 103 0 103"/>
</svg>