<?xml version="1.0" standalone="no"?>
<svg width="1500px" height="1500px" version="1.1" xmlns="http://www.w3.org/2000/svg">
<path transform="scale(1, -1) translate(0, -1500)" glyph-name="repo" unicode="&#38;" d="M224 384l-32 0 0-32 32 0z m0 64l-32 0 0-32 32 0z m192 64c-16 0-304 0-320 0-16 0-32-16-32-32 0-16 0-368 0-384 0-16 16-32 32-32 16 0 64 0 64 0l0-64 48 48 48-48 0 64c0 0 144 0 160 0 16 0 32 16 32 32 0 16 0 368 0 384 0 16-16 32-32 32z m0-400c0-8-7-16-16-16-8 0-144 0-144 0l0 32-96 0 0-32c0 0-39 0-48 0-8 0-16 8-16 16 0 7 0 48 0 48l320 0c0 0 0-40 0-48z m0 80l-256 0 0 288 257 0z m-192 64l-32 0 0-32 32 0z m0 64l-32 0 0-32 32 0z"/>
</svg>