<?xml version="1.0" standalone="no"?>
<svg width="1500px" height="1500px" version="1.1" xmlns="http://www.w3.org/2000/svg">
<path transform="scale(1, -1) translate(0, -1500)" glyph-name="screen-desktop" unicode="&#57350;" d="M478 230l0 222c0 3-1 5-3 6-1 2-3 3-6 3l-426 0c-3 0-5-1-6-3-2-1-3-3-3-6l0-222c0-2 1-4 3-6 1-1 3-2 6-2l426 0c3 0 5 1 6 2 2 2 3 4 3 6z m34 222l0-290c0-12-4-22-13-30-8-8-18-13-30-13l-145 0c0-6 2-13 5-20 2-7 5-14 8-19 3-6 4-9 4-12 0-4-1-8-5-12-3-3-7-5-12-5l-136 0c-5 0-9 2-12 5-4 4-5 8-5 12 0 3 1 7 4 12 3 5 6 12 8 19 3 7 5 14 5 20l-145 0c-12 0-22 5-30 13-9 8-13 18-13 30l0 290c0 12 4 22 13 30 8 9 18 13 30 13l426 0c12 0 22-4 30-13 9-8 13-18 13-30z"/>
</svg>