<?xml version="1.0" standalone="no"?>
<svg width="1500px" height="1500px" version="1.1" xmlns="http://www.w3.org/2000/svg">
<path transform="scale(1, -1) translate(0, -1500)" glyph-name="sun" unicode="&#53;" d="M251 500c-2-3-2-5-2-40 0-38 0-38 3-40 4-3 7-3 9 0 2 2 3 7 3 40 0 35 0 38-3 40-3 3-6 3-10 0z m-118-31c-1-1-1-4-1-5 0-3 15-32 23-44 1-2 4-6 6-10 5-10 10-15 14-14 9 3 8 7-12 41-10 17-18 31-19 32-2 3-9 2-11 0z m238 1c-2-1-6-8-12-17-5-8-9-15-9-15 0-1-10-18-12-22-7-10-8-16-2-20 4-3 8 0 13 8 2 4 10 19 18 32 15 27 16 31 10 33-1 1-4 1-6 1z m-137-85c-26-5-48-16-68-35-56-56-47-151 20-195 21-14 41-20 67-21 13-1 19 0 29 2 35 8 61 25 80 54 21 32 26 70 16 107-3 10-12 29-15 33-1 1-3 4-5 6-8 11-22 24-36 33-23 15-60 22-88 16z m41-13c66-11 109-80 89-145-10-33-38-62-71-74-12-4-16-5-33-5-49-3-93 27-110 75-6 13-6 20-6 40 0 17 2 28 9 43 14 32 44 57 76 64 6 1 11 3 12 3 4 1 27 0 34-1z m-227 12c-3-2-4-5-2-9 1-3 36-24 58-36 8-4 12-4 15 1 3 5 0 8-18 19-10 5-18 10-19 10-1 1-3 2-5 3-4 3-20 12-23 13-2 0-4 0-6-1z m402-4c-4-2-8-5-9-5-9-4-46-27-48-30-2-4-1-8 3-10 4-1 7 0 45 22 27 16 31 20 23 26-3 3-5 2-14-3z m-435-115c-3-3-3-7 0-10 2-2 7-2 39-2 32 0 38 0 40 2 4 2 4 7 1 10-2 3-7 3-40 3-35 0-38 0-40-3z m401 1c-1-1-3-4-3-6 0-7 3-7 44-7 20 0 37 0 38 1 3 2 4 8 1 11-2 3-4 3-39 3-32 0-38 0-41-2z m-20-82c-4-2-6-8-3-11 3-3 57-35 64-37 7-3 13 5 8 11-1 1-12 9-26 16-14 8-26 15-28 16-6 4-12 6-15 5z m-295-6c-5-3-12-6-14-8-3-1-12-7-21-12-9-5-17-10-18-11-3-2-4-9-1-11 5-4 4-4 61 29 11 6 14 10 11 15-3 5-7 5-18-2z m234-56c-2-1-3-3-3-5 0-2 7-15 15-29 8-14 16-28 17-31 4-7 8-9 13-8 3 2 4 4 4 9 0 2-27 49-34 60-4 6-8 8-12 4z m-166 0c-1-1-8-11-14-23-7-11-14-23-15-26-3-4-5-9-7-12-3-6-3-6 0-10 1-2 3-3 6-3 4 1 5 2 20 28 23 40 24 41 18 46-2 2-4 2-8 0z m82-23c-2-2-2-7-2-40 0-38 0-38 3-40 4-3 7-3 9 0 2 2 3 7 3 40 0 31-1 37-3 40-2 3-7 4-10 0z"/>
</svg>