<?xml version="1.0" standalone="no"?>
<svg width="1500px" height="1500px" version="1.1" xmlns="http://www.w3.org/2000/svg">
<path transform="scale(1, -1) translate(0, -1500)" glyph-name="t-shirt" unicode="&#57356;" d="M500 409l-80 64c-6 5-13 7-20 7l-288 0c-7 0-14-2-20-7l-80-64c-10-8-15-22-10-35l32-96c3-10 10-17 20-20 3-1 7-2 10-2 6 0 11 1 16 4l0-196c0-18 14-32 32-32l288 0c18 0 32 14 32 32l0 196c5-3 10-4 16-4 4 0 7 1 10 2 10 3 17 10 20 20l32 96c5 13 0 27-10 35z m-184 39c-9-19-32-32-60-32-28 0-51 13-60 32z m132-160l-48 32 0-256-288 0 0 256-48-32-32 96 80 64 67 0c9-28 40-48 77-48 37 0 68 20 77 48l67 0 80-64z"/>
</svg>