<?xml version="1.0" standalone="no"?>
<svg width="1500px" height="1500px" version="1.1" xmlns="http://www.w3.org/2000/svg">
<path transform="scale(1, -1) translate(0, -1500)" glyph-name="tag" unicode="&#111;" d="M224 480l-128 0-64-64 0-128 256-256 192 192z m-160-176l0 96 48 48 96 0 224-224-144-144z m192 48l-96-96 128-128 96 96z m-48-96l48 48 80-80-48-48z m-16 112c0 26-21 48-48 48-26 0-48-22-48-48 0-27 22-48 48-48 27 0 48 21 48 48z m-48-16c-9 0-16 7-16 16 0 9 7 16 16 16 9 0 16-7 16-16 0-9-7-16-16-16z"/>
</svg>