<?xml version="1.0" standalone="no"?>
<svg width="1500px" height="1500px" version="1.1" xmlns="http://www.w3.org/2000/svg">
<path transform="scale(1, -1) translate(0, -1500)" glyph-name="television-tv" unicode="&#49;" d="M480 384l-177 0 70 70c6 6 6 16 0 22-7 7-17 7-23 0l-92-92-19 0-93 92c-6 7-16 7-22 0-6-6-6-16 0-22l70-70-162 0c-18 0-32-14-32-32l0-288c0-18 14-32 32-32l448 0c18 0 32 14 32 32l0 288c0 18-14 32-32 32m-128-288l-288 0 0 224 288 0z m96 96l-32 0 0 32 32 0z m0 64l-32 0 0 32 32 0z"/>
</svg>