<?xml version="1.0" standalone="no"?>
<svg width="1500px" height="1500px" version="1.1" xmlns="http://www.w3.org/2000/svg">
<path transform="scale(1, -1) translate(0, -1500)" glyph-name="tools" unicode="&#57344;" d="M79 336c-3-3-4-7-6-11-1-5-1-9-1-13 0-4 0-6-1-6-1-1-4-3-9-8-5-4-8-7-9-8-6-5-11-4-15 2 0 0-36 39-36 39-3 4-3 8 1 12 1 1 4 3 10 7 5 4 8 7 10 8 2 2 6 3 14 3 7 0 13 3 19 8 4 4 7 11 9 19 1 8 3 13 5 15 1 0 2 2 5 4 2 2 6 6 13 11 6 5 13 11 21 16 46 31 77 47 95 49 42 0 67 0 76-1 4 0 3-1-4-4-41-18-67-31-78-39-27-19-34-38-19-58 12-16 19-24 20-25 3-2 2-5-1-7-1-1-7-6-20-18-12-11-18-17-19-18-5-2-8-3-9-2-15 17-27 27-37 31-9 4-21 2-34-6m147-13c0 0 209-244 209-244 7-8 6-14-1-20 0 0-24-21-24-21-8-5-14-4-20 2 0 0-212 242-212 242-2 2-2 6 0 10 0 0 37 32 37 32 4 2 8 2 11-1m283 103c6-36 3-64-8-85-17-30-43-41-79-32-19 4-36-1-51-16 0 0-42-40-42-40 0 0-35 40-35 40 0 0 35 36 35 36 8 8 13 17 16 27 2 10 3 21 3 33 0 12 0 22 2 30 5 19 28 38 72 57 4 2 7 2 9-1 2-3 3-6 1-8-4-4-12-18-23-41-5-3-7-9-6-18 0-8 7-18 20-27 20-14 36-10 49 11 2 4 7 11 14 21 6 10 10 16 11 17 1 3 4 5 7 5 3-1 5-4 5-9m-439-350c0 0 130 127 130 127 0 0 39-44 39-44 0 0-126-124-126-124-7-7-13-8-20-2 0 0-23 23-23 23-8 6-8 13 0 20"/>
</svg>