<?xml version="1.0" standalone="no"?>
<svg width="1500px" height="1500px" version="1.1" xmlns="http://www.w3.org/2000/svg">
<path transform="scale(1, -1) translate(0, -1500)" glyph-name="unmute" unicode="&#35;" d="M96 320l-64 0 0-128 64 0 128-96 32 0 0 320-32 0z m205-19c-6 7-16 7-22 0-7-6-7-16 0-22 12-13 12-33 0-46-7-6-7-16 0-22 6-7 16-7 22 0 25 25 25 65 0 90z m46 46c-7 6-17 6-23 0-6-7-6-17 0-23 37-38 37-98 0-136-6-6-6-16 0-23 6-6 16-6 23 0 49 50 49 132 0 182z m45 45c-6 6-17 6-23 0-6-6-6-17 0-23 63-62 63-164 0-226-6-6-6-17 0-23 6-6 17-6 23 0 75 75 75 197 0 272z"/>
</svg>