<?xml version="1.0" standalone="no"?>
<svg width="1500px" height="1500px" version="1.1" xmlns="http://www.w3.org/2000/svg">
<path transform="scale(1, -1) translate(0, -1500)" glyph-name="upload-cloud" unicode="&#47;" d="M389 330c34 0 63-12 87-35 24-23 36-52 36-85 0-34-12-62-36-85-24-23-53-35-87-35 0 0-97 0-97 0 0 0 0 97 0 97 0 0 54 0 54 0 0 0-90 118-90 118 0 0-89-118-89-118 0 0 53 0 53 0 0 0 0-97 0-97 0 0-127 0-127 0-25 0-47 9-65 27-19 17-28 39-28 63 0 25 9 47 27 65 18 17 40 26 66 26 5 0 8 0 10-1 0 4-1 11-1 20 0 37 14 68 40 94 27 26 59 39 97 39 30 0 58-9 82-27 23-17 39-40 48-68 9 1 16 2 20 2"/>
</svg>