<?xml version="1.0" standalone="no"?>
<svg width="1500px" height="1500px" version="1.1" xmlns="http://www.w3.org/2000/svg">
<path transform="scale(1, -1) translate(0, -1500)" glyph-name="zoom-in" unicode="&#60;" d="M498 14c-19-19-49-19-68 0l-85 85c-35-22-76-36-121-36-124 0-224 101-224 225 0 124 100 224 224 224 124 0 225-100 225-224 0-45-14-86-36-121l85-85c19-19 19-49 0-68z m-274 434c-88 0-160-72-160-160 0-89 72-161 160-161 89 0 161 72 161 161 0 88-72 160-161 160z m32-257l-64 0 0 65-64 0 0 64 64 0 0 64 64 0 0-64 65 0 0-64-65 0z"/>
</svg>